<svg width="913" height="528" viewBox="0 0 913 528" fill="none" xmlns="http://www.w3.org/2000/svg">
<path opacity="0.5" d="M228.993 268.71L250.037 252.281L343.479 179.268L228.993 89.8264L228.993 268.71Z" fill="url(#paint0_linear_1_131)"/>
<path d="M319.221 527.865L319.221 386.909L319.211 386.909L228.993 457.382L228.993 457.402L319.211 527.875L319.221 527.865Z" fill="#3B7DED"/>
<path d="M343.499 0.364746L229.012 89.8064L229.012 89.8263L343.499 179.268L343.509 179.258L343.509 0.374724L343.499 0.364746Z" fill="#3B7DED"/>
<path d="M114.516 179.258L114.506 179.258L114.506 179.278L114.506 358.131L228.973 268.71L228.993 268.69L114.516 179.258Z" fill="#092F93"/>
<path d="M572.501 -178.528L572.491 -178.538L458.005 -89.0967L458.005 -89.0767L572.491 0.364944L572.501 0.354935L572.501 -178.528Z" fill="#3B7DED"/>
<path opacity="0.3" d="M114.496 179.268L114.506 179.258L114.506 179.248L114.496 179.238L0.00989142 268.68L0.00989141 268.7L114.496 358.141L114.506 358.131L114.506 179.278L114.496 179.268Z" fill="#2559DE"/>
<path d="M458.005 89.8066L572.491 0.364975L458.005 -89.0767L458.005 89.8066Z" fill="#2559DE"/>
<path d="M457.995 -89.0867L343.509 0.354975L343.509 0.374964L457.995 89.8166L458.005 89.8066L458.005 -89.0767L457.995 -89.0867Z" fill="#3B7DED"/>
<path d="M801.494 0.364975L687.007 -89.0767L687.007 89.8066L801.494 0.364975Z" fill="#3B7DED"/>
<path opacity="0.3" d="M687.008 -89.0967L687.008 -89.0767L801.494 0.364944L801.504 0.354935L801.504 -178.528L801.494 -178.538L687.008 -89.0967Z" fill="#092F93"/>
<path d="M915.99 -89.0868L801.504 -178.528L801.504 0.354884L915.99 -89.0868Z" fill="#3B7DED"/>
<path d="M343.509 0.354935L343.509 -178.528L343.499 -178.538L229.012 -89.0967L229.012 -89.0767L343.499 0.364944L343.509 0.354935Z" fill="#22445D"/>
<path d="M458.005 -89.0967L458.005 -267.98L457.995 -267.99L343.509 -178.548L343.509 -178.528L343.509 0.354884L457.995 -89.0867L458.005 -89.0967Z" fill="url(#paint1_linear_1_131)"/>
<path d="M114.476 0.354736L0.00993347 -89.0769L0.00992565 89.7764L114.476 0.354736Z" fill="#3B7DED"/>
<path d="M687.007 -267.98L686.998 -267.99L572.501 -178.548L572.491 -178.538L572.501 -178.528L572.501 0.354884L686.998 -89.0867L687.007 -89.0967L687.007 -267.98Z" fill="#0D2333"/>
<path d="M114.476 0.354734L0.00989142 89.7764L0.00989141 89.8063L0.00989141 89.8263L0.00988359 268.68L114.496 179.238L114.506 179.228L114.506 0.374722L114.496 0.364743L114.506 0.354734L114.506 0.344726L114.496 0.334717L114.476 0.354734Z" fill="#092F93"/>
<path d="M114.506 179.248L114.506 179.258L114.516 179.258L228.993 89.8164L114.506 0.374751L114.506 179.228L114.506 179.248Z" fill="#3B7DED"/>
<path d="M687.008 89.8064L687.008 89.8263L801.494 179.268L801.504 179.258L801.504 0.374724L801.494 0.364746L687.008 89.8064Z" fill="#162E41"/>
<path d="M260.976 293.707L229.012 268.73L229.012 447.613L343.499 358.171L260.976 293.707Z" fill="#092F93"/>
<path d="M343.499 358.171L343.509 358.161L457.995 268.72L343.509 179.278L343.499 179.278L343.509 179.278L343.509 179.258L343.499 179.268L250.047 252.271L229.012 268.71L229.012 89.8265L229.012 89.8065L343.499 0.364909L229.012 -89.0767L229.012 -89.0967L228.993 -89.0867L114.506 -178.528L114.506 0.344895L114.506 0.354889L114.496 0.364899L114.506 0.374878L228.993 89.8165L114.516 179.258L228.993 268.69L228.973 268.71L228.993 268.72L229.012 268.73L260.976 293.707L343.499 358.171Z" fill="#2556CC"/>
<path d="M343.509 179.258L343.509 179.278L457.995 268.72L458.005 268.71L458.005 89.8264L457.995 89.8164L343.509 179.258Z" fill="#092F93"/>
<path d="M114.506 179.278L114.506 179.258L114.496 179.268L114.506 179.278Z" fill="#0D2333"/>
<path d="M343.509 0.35498L343.499 0.36499L343.509 0.374969L343.509 0.35498Z" fill="#0D2333"/>
<path d="M589.966 278.069L629.744 246.992L589.966 215.915L589.966 278.069Z" fill="#092F93"/>
<path d="M825.801 173.709L888.271 124.903L825.801 76.0977L825.801 173.709Z" fill="#092F93"/>
<path d="M801.504 179.278L801.504 179.258L801.494 179.268L801.504 179.278Z" fill="#0D2333"/>
<path d="M114.506 358.181L114.506 358.161L114.496 358.171L114.506 358.181Z" fill="#0D2333"/>
<path d="M228.992 447.623L229.012 447.633L229.012 447.613L228.992 447.623Z" fill="#0D2333"/>
<path d="M343.509 358.181L343.509 358.161L343.499 358.171L343.509 358.181Z" fill="#0D2333"/>
<path d="M801.504 0.374969L801.504 0.35498L801.494 0.36499L801.504 0.374969Z" fill="#0D2333"/>
<path d="M458.005 268.73L458.005 268.71L457.995 268.72L458.005 268.73Z" fill="#0D2333"/>
<path d="M572.501 179.258L572.501 0.374968L572.501 0.35498L572.491 0.364989L458.005 89.8066L457.995 89.8166L458.005 89.8266L572.491 179.268L572.501 179.278L572.501 179.258Z" fill="#092F93"/>
<path d="M687.007 -89.0767L686.998 -89.0867L572.501 0.35496L687.007 89.8066L687.007 -89.0767Z" fill="#092F93"/>
<path d="M687.007 89.8066L572.501 0.354975L572.501 179.298L687.007 89.8066Z" fill="#3B7DED"/>
<path d="M114.506 0.334918L114.506 0.354937L228.973 89.7766L228.993 89.7666L229.003 89.7766L229.003 -89.0967L228.993 -89.1067L114.506 0.334918Z" fill="#092F93"/>
<path d="M114.506 179.278L114.506 179.298L228.973 268.73L228.993 268.71L229.003 268.72L229.003 89.8464L228.993 89.8364L114.506 179.278Z" fill="#2450A7"/>
<path d="M687.007 89.8064L801.464 179.278L801.484 179.268L801.494 179.278L801.494 0.404754L801.484 0.394775L687.007 89.8064Z" fill="#092F93"/>
<path opacity="0.5" d="M343.519 358.131L364.554 341.703L457.995 268.69L343.519 179.258L343.519 358.131Z" fill="#255DF0"/>
<path d="M311.535 333.194L343.499 358.171L343.499 179.288L229.012 268.73L311.535 333.194Z" fill="#3B7DED"/>
<path d="M585.146 206.796L516.428 153.111L516.418 153.101L516.418 153.111L516.418 260.491L585.146 206.796Z" fill="#3B7DED"/>
<defs>
<linearGradient id="paint0_linear_1_131" x1="338.14" y1="61.526" x2="205.035" y2="245.759" gradientUnits="userSpaceOnUse">
<stop offset="0.3731" stop-color="#0D2333"/>
<stop offset="0.3979" stop-color="#394B58"/>
<stop offset="0.4254" stop-color="#62707B"/>
<stop offset="0.4563" stop-color="#88939B"/>
<stop offset="0.49" stop-color="#A8B0B6"/>
<stop offset="0.5272" stop-color="#C4C9CD"/>
<stop offset="0.5692" stop-color="#DADDDF"/>
<stop offset="0.6182" stop-color="#EBECEE"/>
<stop offset="0.6789" stop-color="#F6F7F8"/>
<stop offset="0.7639" stop-color="#FDFDFD"/>
<stop offset="1" stop-color="white"/>
</linearGradient>
<linearGradient id="paint1_linear_1_131" x1="400.757" y1="-267.988" x2="400.757" y2="0.356674" gradientUnits="userSpaceOnUse">
<stop stop-color="#0D2333"/>
<stop offset="0.1413" stop-color="#0D2333"/>
<stop offset="1" stop-color="#0D2333"/>
</linearGradient>
</defs>
</svg>
