<svg width="85" height="85" viewBox="0 0 85 85" fill="none" xmlns="http://www.w3.org/2000/svg">
<path d="M74.2671 85C80.1947 85 85 80.1947 85 74.2671C85 68.3395 80.1947 63.5342 74.2671 63.5342C68.3395 63.5342 63.5342 68.3395 63.5342 74.2671C63.5342 80.1947 68.3395 85 74.2671 85Z" fill="#F0B501"/>
<path d="M10.733 85C16.6606 85 21.4659 80.1947 21.4659 74.2671C21.4659 68.3395 16.6606 63.5342 10.733 63.5342C4.80539 63.5342 0.00012207 68.3395 0.00012207 74.2671C0.00012207 80.1947 4.80539 85 10.733 85Z" fill="#E43E2B"/>
<path d="M74.2671 21.4658C80.1947 21.4658 85 16.6605 85 10.7329C85 4.80529 80.1947 0 74.2671 0C68.3395 0 63.5342 4.80529 63.5342 10.7329C63.5342 16.6605 68.3395 21.4658 74.2671 21.4658Z" fill="#2CA34D"/>
<path d="M10.7329 21.4671C16.6605 21.4671 21.4657 16.6618 21.4657 10.7342C21.4657 4.80661 16.6605 0.00134277 10.7329 0.00134277C4.80527 0.00134277 0 4.80661 0 10.7342C0 16.6618 4.80527 21.4671 10.7329 21.4671Z" fill="#3B7DED"/>
<path fill-rule="evenodd" clip-rule="evenodd" d="M73.1462 60.3192V24.681C73.5162 24.7104 73.8899 24.7253 74.2674 24.7258V60.2741C73.8901 60.2741 73.5164 60.2891 73.1462 60.3192ZM24.726 74.2673C24.726 73.89 24.7111 73.5163 24.6813 73.1462H60.3192C60.2896 73.5162 60.2746 73.8899 60.2742 74.2673H24.7258H24.726ZM24.7263 10.7327H60.2742C60.2742 11.1101 60.2892 11.4838 60.3192 11.8539H24.6814C24.7108 11.484 24.7257 11.1102 24.7261 10.7327H24.7263ZM11.8539 60.3192C11.484 60.2896 11.1103 60.2746 10.7327 60.2741V24.7261C11.1102 24.7261 11.4839 24.7112 11.8539 24.6813V60.3192Z" fill="#1A1A1A"/>
<path fill-rule="evenodd" clip-rule="evenodd" d="M28.2345 27.377H43.7696C51.4468 27.377 57.6702 33.6003 57.6702 41.2772V43.7695C57.6702 51.4467 51.4468 57.67 43.7696 57.67H28.2345C28.0071 57.67 27.789 57.5797 27.6282 57.4189C27.4674 57.2581 27.3771 57.04 27.3771 56.8126V28.2344C27.3771 28.007 27.4674 27.7889 27.6282 27.6281C27.789 27.4673 28.0071 27.377 28.2345 27.377ZM33.7753 33.3465H43.2787C47.93 33.3465 51.7006 37.1171 51.7006 41.7683V43.2786C51.7006 47.9298 47.93 51.7005 43.2787 51.7005H33.7753C33.6616 51.7005 33.5526 51.6553 33.4722 51.5749C33.3918 51.4945 33.3466 51.3855 33.3466 51.2718V33.7752C33.3466 33.6615 33.3918 33.5524 33.4722 33.472C33.5526 33.3916 33.6616 33.3465 33.7753 33.3465Z" fill="#1A1A1A"/>
</svg>
