<svg width="50" height="50" viewBox="0 0 50 50" fill="none" xmlns="http://www.w3.org/2000/svg">
<rect width="50" height="50" rx="2" fill="#092F93"/>
<path d="M36.1667 15.75C36.1667 12.5883 30.8248 9.91667 24.5 9.91667C18.1752 9.91667 12.8334 12.5883 12.8334 15.75V18.6667C12.8334 21.8283 18.1752 24.5 24.5 24.5C30.8248 24.5 36.1667 21.8283 36.1667 18.6667V15.75ZM24.5 34.7083C18.1752 34.7083 12.8334 32.0367 12.8334 28.875V33.25C12.8334 36.4117 18.1752 39.0833 24.5 39.0833C30.8248 39.0833 36.1667 36.4117 36.1667 33.25V28.875C36.1667 32.0367 30.8248 34.7083 24.5 34.7083Z" fill="white"/>
<path d="M36.1667 21.5833C36.1667 24.745 30.8248 27.4167 24.5 27.4167C18.1752 27.4167 12.8334 24.745 12.8334 21.5833V25.9583C12.8334 29.12 18.1752 31.7917 24.5 31.7917C30.8248 31.7917 36.1667 29.12 36.1667 25.9583V21.5833Z" fill="white"/>
</svg>
