<svg width="40" height="40" viewBox="0 0 40 40" fill="none" xmlns="http://www.w3.org/2000/svg">
<path d="M28.3333 10H36.6667V13.3333H33.3333V35C33.3333 35.442 33.1577 35.866 32.8452 36.1785C32.5326 36.4911 32.1087 36.6667 31.6667 36.6667H8.33333C7.8913 36.6667 7.46738 36.4911 7.15482 36.1785C6.84226 35.866 6.66666 35.442 6.66666 35V13.3333H3.33333V10H11.6667V5.00001C11.6667 4.55798 11.8423 4.13406 12.1548 3.8215C12.4674 3.50894 12.8913 3.33334 13.3333 3.33334H26.6667C27.1087 3.33334 27.5326 3.50894 27.8452 3.8215C28.1577 4.13406 28.3333 4.55798 28.3333 5.00001V10ZM15 18.3333V28.3333H18.3333V18.3333H15ZM21.6667 18.3333V28.3333H25V18.3333H21.6667ZM15 6.66668V10H25V6.66668H15Z" fill="#3B7DED"/>
</svg>
