<svg width="34" height="32" viewBox="0 0 34 32" fill="none" xmlns="http://www.w3.org/2000/svg">
<path d="M28.7692 8.72727V29.0909C28.7685 29.8622 28.4927 30.6016 28.0023 31.147C27.512 31.6924 26.8472 31.9991 26.1538 32H2.61538C1.92198 31.9991 1.2572 31.6924 0.766888 31.147C0.276577 30.6016 0.000778766 29.8622 0 29.0909V8.72727C0.000778766 7.956 0.276577 7.21656 0.766888 6.67119C1.2572 6.12582 1.92198 5.81905 2.61538 5.81818H26.1538C26.8472 5.81905 27.512 6.12582 28.0023 6.67119C28.4927 7.21656 28.7685 7.956 28.7692 8.72727ZM31.3846 0H6.53846C6.19164 0 5.85902 0.153247 5.61378 0.426027C5.36854 0.698807 5.23077 1.06878 5.23077 1.45455C5.23077 1.84031 5.36854 2.21028 5.61378 2.48306C5.85902 2.75584 6.19164 2.90909 6.53846 2.90909H31.3846V24.7273C31.3846 25.113 31.5224 25.483 31.7676 25.7558C32.0129 26.0286 32.3455 26.1818 32.6923 26.1818C33.0391 26.1818 33.3717 26.0286 33.617 25.7558C33.8622 25.483 34 25.113 34 24.7273V2.90909C33.9992 2.13782 33.7234 1.39838 33.2331 0.85301C32.7428 0.307637 32.078 0.000866221 31.3846 0Z" fill="#67748E"/>
</svg>
