<svg width="620" height="30" viewBox="0 0 620 30" fill="none" xmlns="http://www.w3.org/2000/svg">
<path d="M223.5 22H221.68L214.36 10.9V22H212.54V8.04H214.36L221.68 19.12V8.04H223.5V22ZM236.603 16.1C236.603 16.4467 236.583 16.8133 236.543 17.2H227.783C227.849 18.28 228.216 19.1267 228.883 19.74C229.563 20.34 230.383 20.64 231.343 20.64C232.129 20.64 232.783 20.46 233.303 20.1C233.836 19.7267 234.209 19.2333 234.423 18.62H236.383C236.089 19.6733 235.503 20.5333 234.623 21.2C233.743 21.8533 232.649 22.18 231.343 22.18C230.303 22.18 229.369 21.9467 228.543 21.48C227.729 21.0133 227.089 20.3533 226.623 19.5C226.156 18.6333 225.923 17.6333 225.923 16.5C225.923 15.3667 226.149 14.3733 226.603 13.52C227.056 12.6667 227.689 12.0133 228.503 11.56C229.329 11.0933 230.276 10.86 231.343 10.86C232.383 10.86 233.303 11.0867 234.103 11.54C234.903 11.9933 235.516 12.62 235.943 13.42C236.383 14.2067 236.603 15.1 236.603 16.1ZM234.723 15.72C234.723 15.0267 234.569 14.4333 234.263 13.94C233.956 13.4333 233.536 13.0533 233.003 12.8C232.483 12.5333 231.903 12.4 231.263 12.4C230.343 12.4 229.556 12.6933 228.903 13.28C228.263 13.8667 227.896 14.68 227.803 15.72H234.723ZM253.605 11.04L250.185 22H248.305L245.665 13.3L243.025 22H241.145L237.705 11.04H239.565L242.085 20.24L244.805 11.04H246.665L249.325 20.26L251.805 11.04H253.605ZM262.963 12.54V19C262.963 19.5333 263.076 19.9133 263.303 20.14C263.53 20.3533 263.923 20.46 264.483 20.46H265.823V22H264.183C263.17 22 262.41 21.7667 261.903 21.3C261.396 20.8333 261.143 20.0667 261.143 19V12.54H259.723V11.04H261.143V8.28H262.963V11.04H265.823V12.54H262.963ZM272.808 22.18C271.782 22.18 270.848 21.9467 270.008 21.48C269.182 21.0133 268.528 20.3533 268.048 19.5C267.582 18.6333 267.348 17.6333 267.348 16.5C267.348 15.38 267.588 14.3933 268.068 13.54C268.562 12.6733 269.228 12.0133 270.068 11.56C270.908 11.0933 271.848 10.86 272.888 10.86C273.928 10.86 274.868 11.0933 275.708 11.56C276.548 12.0133 277.208 12.6667 277.688 13.52C278.182 14.3733 278.428 15.3667 278.428 16.5C278.428 17.6333 278.175 18.6333 277.668 19.5C277.175 20.3533 276.502 21.0133 275.648 21.48C274.795 21.9467 273.848 22.18 272.808 22.18ZM272.808 20.58C273.462 20.58 274.075 20.4267 274.648 20.12C275.222 19.8133 275.682 19.3533 276.028 18.74C276.388 18.1267 276.568 17.38 276.568 16.5C276.568 15.62 276.395 14.8733 276.048 14.26C275.702 13.6467 275.248 13.1933 274.688 12.9C274.128 12.5933 273.522 12.44 272.868 12.44C272.202 12.44 271.588 12.5933 271.028 12.9C270.482 13.1933 270.042 13.6467 269.708 14.26C269.375 14.8733 269.208 15.62 269.208 16.5C269.208 17.3933 269.368 18.1467 269.688 18.76C270.022 19.3733 270.462 19.8333 271.008 20.14C271.555 20.4333 272.155 20.58 272.808 20.58ZM290.493 8.06C292.013 8.06 293.327 8.34667 294.433 8.92C295.553 9.48 296.407 10.2867 296.993 11.34C297.593 12.3933 297.893 13.6333 297.893 15.06C297.893 16.4867 297.593 17.7267 296.993 18.78C296.407 19.82 295.553 20.62 294.433 21.18C293.327 21.7267 292.013 22 290.493 22H286.153V8.06H290.493ZM290.493 20.5C292.293 20.5 293.667 20.0267 294.613 19.08C295.56 18.12 296.033 16.78 296.033 15.06C296.033 13.3267 295.553 11.9733 294.593 11C293.647 10.0267 292.28 9.54 290.493 9.54H287.973V20.5H290.493ZM299.614 16.48C299.614 15.36 299.841 14.38 300.294 13.54C300.747 12.6867 301.367 12.0267 302.154 11.56C302.954 11.0933 303.841 10.86 304.814 10.86C305.774 10.86 306.607 11.0667 307.314 11.48C308.021 11.8933 308.547 12.4133 308.894 13.04V11.04H310.734V22H308.894V19.96C308.534 20.6 307.994 21.1333 307.274 21.56C306.567 21.9733 305.741 22.18 304.794 22.18C303.821 22.18 302.941 21.94 302.154 21.46C301.367 20.98 300.747 20.3067 300.294 19.44C299.841 18.5733 299.614 17.5867 299.614 16.48ZM308.894 16.5C308.894 15.6733 308.727 14.9533 308.394 14.34C308.061 13.7267 307.607 13.26 307.034 12.94C306.474 12.6067 305.854 12.44 305.174 12.44C304.494 12.44 303.874 12.6 303.314 12.92C302.754 13.24 302.307 13.7067 301.974 14.32C301.641 14.9333 301.474 15.6533 301.474 16.48C301.474 17.32 301.641 18.0533 301.974 18.68C302.307 19.2933 302.754 19.7667 303.314 20.1C303.874 20.42 304.494 20.58 305.174 20.58C305.854 20.58 306.474 20.42 307.034 20.1C307.607 19.7667 308.061 19.2933 308.394 18.68C308.727 18.0533 308.894 17.3267 308.894 16.5ZM316.03 12.54V19C316.03 19.5333 316.143 19.9133 316.37 20.14C316.596 20.3533 316.99 20.46 317.55 20.46H318.89V22H317.25C316.236 22 315.476 21.7667 314.97 21.3C314.463 20.8333 314.21 20.0667 314.21 19V12.54H312.79V11.04H314.21V8.28H316.03V11.04H318.89V12.54H316.03ZM320.415 16.48C320.415 15.36 320.641 14.38 321.095 13.54C321.548 12.6867 322.168 12.0267 322.955 11.56C323.755 11.0933 324.641 10.86 325.615 10.86C326.575 10.86 327.408 11.0667 328.115 11.48C328.821 11.8933 329.348 12.4133 329.695 13.04V11.04H331.535V22H329.695V19.96C329.335 20.6 328.795 21.1333 328.075 21.56C327.368 21.9733 326.541 22.18 325.595 22.18C324.621 22.18 323.741 21.94 322.955 21.46C322.168 20.98 321.548 20.3067 321.095 19.44C320.641 18.5733 320.415 17.5867 320.415 16.48ZM329.695 16.5C329.695 15.6733 329.528 14.9533 329.195 14.34C328.861 13.7267 328.408 13.26 327.835 12.94C327.275 12.6067 326.655 12.44 325.975 12.44C325.295 12.44 324.675 12.6 324.115 12.92C323.555 13.24 323.108 13.7067 322.775 14.32C322.441 14.9333 322.275 15.6533 322.275 16.48C322.275 17.32 322.441 18.0533 322.775 18.68C323.108 19.2933 323.555 19.7667 324.115 20.1C324.675 20.42 325.295 20.58 325.975 20.58C326.655 20.58 327.275 20.42 327.835 20.1C328.408 19.7667 328.861 19.2933 329.195 18.68C329.528 18.0533 329.695 17.3267 329.695 16.5ZM336.43 7.2V22H334.61V7.2H336.43ZM348.972 11.04L342.372 27.16H340.492L342.652 21.88L338.232 11.04H340.252L343.692 19.92L347.092 11.04H348.972ZM353.022 12.54V19C353.022 19.5333 353.135 19.9133 353.362 20.14C353.588 20.3533 353.982 20.46 354.542 20.46H355.882V22H354.242C353.228 22 352.468 21.7667 351.962 21.3C351.455 20.8333 351.202 20.0667 351.202 19V12.54H349.782V11.04H351.202V8.28H353.022V11.04H355.882V12.54H353.022ZM359.027 9.26C358.68 9.26 358.387 9.14 358.147 8.9C357.907 8.66 357.787 8.36667 357.787 8.02C357.787 7.67333 357.907 7.38 358.147 7.14C358.387 6.9 358.68 6.78 359.027 6.78C359.36 6.78 359.64 6.9 359.867 7.14C360.107 7.38 360.227 7.67333 360.227 8.02C360.227 8.36667 360.107 8.66 359.867 8.9C359.64 9.14 359.36 9.26 359.027 9.26ZM359.907 11.04V22H358.087V11.04H359.907ZM362.329 16.5C362.329 15.3667 362.555 14.38 363.009 13.54C363.462 12.6867 364.089 12.0267 364.889 11.56C365.702 11.0933 366.629 10.86 367.669 10.86C369.015 10.86 370.122 11.1867 370.989 11.84C371.869 12.4933 372.449 13.4 372.729 14.56H370.769C370.582 13.8933 370.215 13.3667 369.669 12.98C369.135 12.5933 368.469 12.4 367.669 12.4C366.629 12.4 365.789 12.76 365.149 13.48C364.509 14.1867 364.189 15.1933 364.189 16.5C364.189 17.82 364.509 18.84 365.149 19.56C365.789 20.28 366.629 20.64 367.669 20.64C368.469 20.64 369.135 20.4533 369.669 20.08C370.202 19.7067 370.569 19.1733 370.769 18.48H372.729C372.435 19.6 371.849 20.5 370.969 21.18C370.089 21.8467 368.989 22.18 367.669 22.18C366.629 22.18 365.702 21.9467 364.889 21.48C364.089 21.0133 363.462 20.3533 363.009 19.5C362.555 18.6467 362.329 17.6467 362.329 16.5ZM379.037 22.18C378.197 22.18 377.444 22.04 376.777 21.76C376.111 21.4667 375.584 21.0667 375.197 20.56C374.811 20.04 374.597 19.4467 374.557 18.78H376.437C376.491 19.3267 376.744 19.7733 377.197 20.12C377.664 20.4667 378.271 20.64 379.017 20.64C379.711 20.64 380.257 20.4867 380.657 20.18C381.057 19.8733 381.257 19.4867 381.257 19.02C381.257 18.54 381.044 18.1867 380.617 17.96C380.191 17.72 379.531 17.4867 378.637 17.26C377.824 17.0467 377.157 16.8333 376.637 16.62C376.131 16.3933 375.691 16.0667 375.317 15.64C374.957 15.2 374.777 14.6267 374.777 13.92C374.777 13.36 374.944 12.8467 375.277 12.38C375.611 11.9133 376.084 11.5467 376.697 11.28C377.311 11 378.011 10.86 378.797 10.86C380.011 10.86 380.991 11.1667 381.737 11.78C382.484 12.3933 382.884 13.2333 382.937 14.3H381.117C381.077 13.7267 380.844 13.2667 380.417 12.92C380.004 12.5733 379.444 12.4 378.737 12.4C378.084 12.4 377.564 12.54 377.177 12.82C376.791 13.1 376.597 13.4667 376.597 13.92C376.597 14.28 376.711 14.58 376.937 14.82C377.177 15.0467 377.471 15.2333 377.817 15.38C378.177 15.5133 378.671 15.6667 379.297 15.84C380.084 16.0533 380.724 16.2667 381.217 16.48C381.711 16.68 382.131 16.9867 382.477 17.4C382.837 17.8133 383.024 18.3533 383.037 19.02C383.037 19.62 382.871 20.16 382.537 20.64C382.204 21.12 381.731 21.5 381.117 21.78C380.517 22.0467 379.824 22.18 379.037 22.18ZM389.166 7.88C390.486 7.88 391.553 8.25333 392.366 9C393.18 9.74667 393.586 10.7467 393.586 12C393.586 13.4 393.153 14.44 392.286 15.12C391.42 15.7867 390.246 16.12 388.766 16.12L388.706 18.02H387.126L387.046 14.86H387.626C388.946 14.86 389.98 14.66 390.726 14.26C391.473 13.86 391.846 13.1067 391.846 12C391.846 11.2 391.606 10.5667 391.126 10.1C390.646 9.63333 390 9.4 389.186 9.4C388.36 9.4 387.706 9.62667 387.226 10.08C386.76 10.52 386.526 11.1267 386.526 11.9H384.806C384.806 11.1 384.986 10.4 385.346 9.8C385.706 9.18667 386.213 8.71333 386.866 8.38C387.533 8.04667 388.3 7.88 389.166 7.88ZM387.906 22.12C387.56 22.12 387.266 22 387.026 21.76C386.786 21.52 386.666 21.2267 386.666 20.88C386.666 20.5333 386.786 20.24 387.026 20C387.266 19.76 387.56 19.64 387.906 19.64C388.24 19.64 388.52 19.76 388.746 20C388.986 20.24 389.106 20.5333 389.106 20.88C389.106 21.2267 388.986 21.52 388.746 21.76C388.52 22 388.24 22.12 387.906 22.12Z" fill="black" fill-opacity="0.59"/>
<line x1="6.55671e-08" y1="17.25" x2="195" y2="17.25" stroke="black" stroke-opacity="0.5" stroke-width="1.5"/>
<line x1="411" y1="17.25" x2="620" y2="17.25" stroke="black" stroke-opacity="0.5" stroke-width="1.5"/>
</svg>
