<svg width="26" height="30" viewBox="0 0 26 30" fill="none" xmlns="http://www.w3.org/2000/svg">
<path d="M13 0C6.846 0 1.85719 4.98881 1.85719 11.1428V17.8021L0.543993 19.1153C0.0128521 19.6465 -0.146026 20.4452 0.141422 21.1392C0.428869 21.8332 1.10606 22.2856 1.85719 22.2856H24.1428C24.894 22.2856 25.5711 21.8332 25.8586 21.1392C26.1461 20.4452 25.9871 19.6465 25.4559 19.1153L24.1428 17.8021V11.1428C24.1428 4.98881 19.1539 0 13 0Z" fill="#67748E"/>
<path d="M12.9998 29.7142C9.92282 29.7142 7.42841 27.2199 7.42841 24.1428H18.5712C18.5712 27.2199 16.0769 29.7142 12.9998 29.7142Z" fill="#67748E"/>
</svg>
