<svg width="30" height="30" viewBox="0 0 30 30" fill="none" xmlns="http://www.w3.org/2000/svg">
<path fill-rule="evenodd" clip-rule="evenodd" d="M17.7922 2.19551C17.0816 -0.731836 12.9184 -0.731836 12.2077 2.19551C11.7486 4.08654 9.58209 4.98395 7.9203 3.97141C5.34783 2.40397 2.40397 5.34783 3.97141 7.9203C4.98395 9.58209 4.08654 11.7486 2.19551 12.2077C-0.731836 12.9184 -0.731836 17.0816 2.19551 17.7922C4.08654 18.2514 4.98395 20.418 3.97141 22.0796C2.40397 24.6521 5.34783 27.5961 7.92031 26.0286C9.58209 25.0161 11.7486 25.9134 12.2077 27.8046C12.9184 30.7318 17.0816 30.7318 17.7922 27.8046C18.2514 25.9134 20.418 25.0161 22.0796 26.0286C24.6521 27.5961 27.5961 24.6521 26.0286 22.0796C25.0161 20.418 25.9134 18.2514 27.8046 17.7922C30.7318 17.0816 30.7318 12.9184 27.8046 12.2077C25.9134 11.7486 25.0161 9.58209 26.0286 7.9203C27.5961 5.34783 24.6521 2.40397 22.0796 3.97141C20.418 4.98395 18.2514 4.08654 17.7922 2.19551ZM15 20.625C18.1067 20.625 20.625 18.1067 20.625 15C20.625 11.8934 18.1067 9.375 15 9.375C11.8934 9.375 9.375 11.8934 9.375 15C9.375 18.1067 11.8934 20.625 15 20.625Z" fill="#67748E"/>
</svg>
