<svg width="22" height="21" viewBox="0 0 22 21" fill="none" xmlns="http://www.w3.org/2000/svg">
<path d="M18.1571 2.48574V0.521458C18.1571 0.417266 18.1158 0.317341 18.0421 0.243666C17.9684 0.169991 17.8685 0.128601 17.7643 0.128601H4.40714C4.30295 0.128601 4.20302 0.169991 4.12935 0.243666C4.05567 0.317341 4.01428 0.417266 4.01428 0.521458V2.48574" fill="white"/>
<path d="M18.5499 3.27142H3.62134C2.89199 3.27142 2.19252 3.56115 1.67679 4.07688C1.16107 4.5926 0.871338 5.29208 0.871338 6.02142V16.2357C0.871338 16.3399 0.912728 16.4398 0.986403 16.5135C1.06008 16.5872 1.16 16.6286 1.2642 16.6286H4.01419V20.1643C4.01419 20.2685 4.05559 20.3684 4.12926 20.4421C4.20294 20.5157 4.30286 20.5571 4.40705 20.5571H17.7642C17.8684 20.5571 17.9683 20.5157 18.042 20.4421C18.1157 20.3684 18.1571 20.2685 18.1571 20.1643V16.6286H20.9071C21.0112 16.6286 21.1112 16.5872 21.1848 16.5135C21.2585 16.4398 21.2999 16.3399 21.2999 16.2357V6.02142C21.2999 5.29208 21.0102 4.5926 20.4945 4.07688C19.9787 3.56115 19.2793 3.27142 18.5499 3.27142V3.27142ZM16.1928 18.3964C16.1928 18.4485 16.1721 18.4985 16.1352 18.5353C16.0984 18.5722 16.0484 18.5929 15.9963 18.5929H6.17491C6.12281 18.5929 6.07285 18.5722 6.03601 18.5353C5.99918 18.4985 5.97848 18.4485 5.97848 18.3964V10.9321C5.97848 10.88 5.99918 10.8301 6.03601 10.7932C6.07285 10.7564 6.12281 10.7357 6.17491 10.7357H15.9963C16.0484 10.7357 16.0984 10.7564 16.1352 10.7932C16.1721 10.8301 16.1928 10.88 16.1928 10.9321V18.3964ZM17.8624 7.98178C17.622 8.0011 17.3815 7.94622 17.1733 7.82454C16.9651 7.70285 16.7992 7.52023 16.6981 7.30131C16.5969 7.08239 16.5654 6.83771 16.6077 6.60029C16.65 6.36287 16.7641 6.14415 16.9346 5.97362C17.1051 5.8031 17.3239 5.68899 17.5613 5.64669C17.7987 5.6044 18.0434 5.63595 18.2623 5.7371C18.4812 5.83824 18.6638 6.00411 18.7855 6.21231C18.9072 6.42052 18.9621 6.66104 18.9428 6.90142C18.9203 7.18047 18.7993 7.44242 18.6014 7.64037C18.4034 7.83833 18.1415 7.95935 17.8624 7.98178V7.98178Z" fill="white"/>
</svg>
