<svg width="26" height="26" viewBox="0 0 26 26" fill="none" xmlns="http://www.w3.org/2000/svg">
<path fill-rule="evenodd" clip-rule="evenodd" d="M4.57147 3.82855C4.23806 3.82855 3.9183 3.961 3.68254 4.19676C3.44678 4.43252 3.31433 4.75228 3.31433 5.0857C3.31433 5.41911 3.44678 5.73887 3.68254 5.97463C3.9183 6.21039 4.23806 6.34284 4.57147 6.34284V16.4C4.57147 17.0668 4.83637 17.7063 5.30789 18.1778C5.77941 18.6494 6.41893 18.9143 7.08576 18.9143H10.3367L8.71125 20.5398C8.59118 20.6557 8.4954 20.7944 8.42952 20.9478C8.36363 21.1012 8.32895 21.2662 8.3275 21.4331C8.32605 21.6 8.35786 21.7655 8.42107 21.92C8.48428 22.0745 8.57763 22.2149 8.69566 22.3329C8.8137 22.451 8.95406 22.5443 9.10856 22.6075C9.26306 22.6707 9.4286 22.7025 9.59552 22.7011C9.76244 22.6996 9.92741 22.665 10.0808 22.5991C10.2342 22.5332 10.3729 22.4374 10.4888 22.3174L13.3715 19.4347L16.2541 22.3174C16.4912 22.5464 16.8088 22.6731 17.1384 22.6702C17.468 22.6673 17.7833 22.5351 18.0164 22.302C18.2495 22.069 18.3817 21.7536 18.3845 21.424C18.3874 21.0944 18.2607 20.7769 18.0317 20.5398L16.4062 18.9143H19.6572C20.324 18.9143 20.9635 18.6494 21.4351 18.1778C21.9066 17.7063 22.1715 17.0668 22.1715 16.4V6.34284C22.5049 6.34284 22.8246 6.21039 23.0604 5.97463C23.2962 5.73887 23.4286 5.41911 23.4286 5.0857C23.4286 4.75228 23.2962 4.43252 23.0604 4.19676C22.8246 3.961 22.5049 3.82855 22.1715 3.82855H4.57147ZM18.4 8.85712C18.4 8.52371 18.2676 8.20395 18.0318 7.96819C17.7961 7.73243 17.4763 7.59998 17.1429 7.59998C16.8095 7.59998 16.4897 7.73243 16.254 7.96819C16.0182 8.20395 15.8858 8.52371 15.8858 8.85712V13.8857C15.8858 14.2191 16.0182 14.5389 16.254 14.7746C16.4897 15.0104 16.8095 15.1428 17.1429 15.1428C17.4763 15.1428 17.7961 15.0104 18.0318 14.7746C18.2676 14.5389 18.4 14.2191 18.4 13.8857V8.85712ZM14.6286 10.1143C14.6286 9.78085 14.4962 9.46109 14.2604 9.22533C14.0246 8.98957 13.7049 8.85712 13.3715 8.85712C13.0381 8.85712 12.7183 8.98957 12.4825 9.22533C12.2468 9.46109 12.1143 9.78085 12.1143 10.1143V13.8857C12.1143 14.2191 12.2468 14.5389 12.4825 14.7746C12.7183 15.0104 13.0381 15.1428 13.3715 15.1428C13.7049 15.1428 14.0246 15.0104 14.2604 14.7746C14.4962 14.5389 14.6286 14.2191 14.6286 13.8857V10.1143ZM10.8572 11.3714C10.8572 11.038 10.7247 10.7182 10.489 10.4825C10.2532 10.2467 9.93346 10.1143 9.60004 10.1143C9.26663 10.1143 8.94687 10.2467 8.71111 10.4825C8.47535 10.7182 8.3429 11.038 8.3429 11.3714V13.8857C8.3429 14.2191 8.47535 14.5389 8.71111 14.7746C8.94687 15.0104 9.26663 15.1428 9.60004 15.1428C9.93346 15.1428 10.2532 15.0104 10.489 14.7746C10.7247 14.5389 10.8572 14.2191 10.8572 13.8857V11.3714Z" fill="#3A416F"/>
</svg>
