<svg width="24" height="30" viewBox="0 0 24 30" fill="none" xmlns="http://www.w3.org/2000/svg">
<path d="M23.3333 5.83333C23.3333 2.67167 17.9915 0 11.6667 0C5.34187 0 0 2.67167 0 5.83333V8.75C0 11.9117 5.34187 14.5833 11.6667 14.5833C17.9915 14.5833 23.3333 11.9117 23.3333 8.75V5.83333ZM11.6667 24.7917C5.34187 24.7917 0 22.12 0 18.9583V23.3333C0 26.495 5.34187 29.1667 11.6667 29.1667C17.9915 29.1667 23.3333 26.495 23.3333 23.3333V18.9583C23.3333 22.12 17.9915 24.7917 11.6667 24.7917Z" fill="white"/>
<path d="M23.3333 11.6667C23.3333 14.8284 17.9915 17.5001 11.6667 17.5001C5.34187 17.5001 0 14.8284 0 11.6667V16.0417C0 19.2034 5.34187 21.8751 11.6667 21.8751C17.9915 21.8751 23.3333 19.2034 23.3333 16.0417V11.6667Z" fill="white"/>
</svg>
