<svg width="28" height="23" viewBox="0 0 28 23" fill="none" xmlns="http://www.w3.org/2000/svg">
<g clip-path="url(#clip0_617_730)">
<path d="M11.7809 5.37161C11.7809 5.06598 11.9024 4.77287 12.1185 4.55675C12.3346 4.34064 12.6277 4.21923 12.9333 4.21923C13.239 4.21923 13.5321 4.34064 13.7482 4.55675C13.9643 4.77287 14.0857 5.06598 14.0857 5.37161V10.5228L15.4801 10.6726L21.1729 13.1963C21.7836 13.4728 22.1524 14.0836 22.1524 14.752V19.7764C22.1178 20.7213 21.3688 21.4704 20.4238 21.5049H12.9333C12.4954 21.5049 12.0806 21.3321 11.7809 21.0094L6.13428 16.1694L6.98704 15.2821C7.20599 15.0401 7.51713 14.9133 7.8398 14.9133H8.09333L11.7809 16.8954V5.37161ZM10.6286 9.3358V5.37161C10.6286 4.76035 10.8714 4.17412 11.3036 3.7419C11.7358 3.30967 12.3221 3.06685 12.9333 3.06685C13.5446 3.06685 14.1308 3.30967 14.563 3.7419C14.9953 4.17412 15.2381 4.76035 15.2381 5.37161V9.3358C16.6094 8.54066 17.5429 7.06561 17.5429 5.37161C17.5429 4.14909 17.0572 2.97664 16.1928 2.11218C15.3283 1.24773 14.1558 0.762085 12.9333 0.762085C11.7108 0.762085 10.5384 1.24773 9.6739 2.11218C8.80945 2.97664 8.3238 4.14909 8.3238 5.37161C8.3238 7.06561 9.25723 8.54066 10.6286 9.3358Z" fill="white"/>
</g>
<defs>
<clipPath id="clip0_617_730">
<rect width="27.6571" height="22.6286" fill="white" transform="translate(0.257202 0.0285645)"/>
</clipPath>
</defs>
</svg>
