<svg width="50" height="50" viewBox="0 0 50 50" fill="none" xmlns="http://www.w3.org/2000/svg">
<rect width="50" height="50" rx="2" fill="#092F93"/>
<path d="M36.3333 15.8333C36.3333 12.6717 30.9915 10 24.6667 10C18.3419 10 13 12.6717 13 15.8333V18.75C13 21.9117 18.3419 24.5833 24.6667 24.5833C30.9915 24.5833 36.3333 21.9117 36.3333 18.75V15.8333ZM24.6667 34.7917C18.3419 34.7917 13 32.12 13 28.9583V33.3333C13 36.495 18.3419 39.1667 24.6667 39.1667C30.9915 39.1667 36.3333 36.495 36.3333 33.3333V28.9583C36.3333 32.12 30.9915 34.7917 24.6667 34.7917Z" fill="white"/>
<path d="M36.3333 21.6667C36.3333 24.8284 30.9915 27.5001 24.6667 27.5001C18.3419 27.5001 13 24.8284 13 21.6667V26.0417C13 29.2034 18.3419 31.8751 24.6667 31.8751C30.9915 31.8751 36.3333 29.2034 36.3333 26.0417V21.6667Z" fill="white"/>
</svg>
