<svg width="29" height="23" viewBox="0 0 29 23" fill="none" xmlns="http://www.w3.org/2000/svg">
<path d="M12.0667 5.65731C12.0667 5.35168 12.1881 5.05857 12.4042 4.84246C12.6204 4.62634 12.9135 4.50493 13.2191 4.50493C13.5247 4.50493 13.8178 4.62634 14.034 4.84246C14.2501 5.05857 14.3715 5.35168 14.3715 5.65731V10.8085L15.7659 10.9583L21.4586 13.482C22.0694 13.7586 22.4381 14.3693 22.4381 15.0377V20.0621C22.4036 21.007 21.6545 21.7561 20.7096 21.7906H13.2191C12.7812 21.7906 12.3663 21.6178 12.0667 21.2951L6.42004 16.4551L7.27281 15.5678C7.49176 15.3258 7.8029 15.199 8.12557 15.199H8.37909L12.0667 17.1811V5.65731ZM10.9143 9.6215V5.65731C10.9143 5.04605 11.1572 4.45983 11.5894 4.0276C12.0216 3.59537 12.6078 3.35255 13.2191 3.35255C13.8304 3.35255 14.4166 3.59537 14.8488 4.0276C15.281 4.45983 15.5239 5.04605 15.5239 5.65731V9.6215C16.8952 8.82636 17.8286 7.35131 17.8286 5.65731C17.8286 4.43479 17.343 3.26234 16.4785 2.39789C15.6141 1.53344 14.4416 1.04779 13.2191 1.04779C11.9966 1.04779 10.8241 1.53344 9.95967 2.39789C9.09521 3.26234 8.60957 4.43479 8.60957 5.65731C8.60957 7.35131 9.543 8.82636 10.9143 9.6215Z" fill="#3A416F"/>
</svg>
