<svg width="33" height="33" viewBox="0 0 33 33" fill="none" xmlns="http://www.w3.org/2000/svg">
<path d="M13 3C6.846 3 1.85719 7.98881 1.85719 14.1428V20.8021L0.543993 22.1153C0.0128521 22.6465 -0.146026 23.4452 0.141422 24.1392C0.428869 24.8332 1.10606 25.2856 1.85719 25.2856H24.1428C24.894 25.2856 25.5711 24.8332 25.8586 24.1392C26.1461 23.4452 25.9871 22.6465 25.4559 22.1153L24.1428 20.8021V14.1428C24.1428 7.98881 19.1539 3 13 3Z" fill="#67748E"/>
<path d="M12.9998 32.7142C9.92282 32.7142 7.42841 30.2198 7.42841 27.1428H18.5712C18.5712 30.2198 16.0769 32.7142 12.9998 32.7142Z" fill="#67748E"/>
<ellipse cx="24.125" cy="7.84615" rx="8.5" ry="7.84615" fill="#F5222D"/>
<path d="M21.423 9.722V8.732L24.366 4.52H25.833V8.624H26.625V9.722H25.833V11H24.573V9.722H21.423ZM24.654 5.87L22.809 8.624H24.654V5.87Z" fill="white"/>
</svg>
