<svg width="50" height="50" viewBox="0 0 50 50" fill="none" xmlns="http://www.w3.org/2000/svg">
<rect width="50" height="50" rx="2" fill="#092F93"/>
<path d="M25 19.6667C24.1514 19.6667 23.3374 20.0038 22.7373 20.6039C22.1372 21.2041 21.8 22.018 21.8 22.8667C21.8 23.7154 22.1372 24.5293 22.7373 25.1294C23.3374 25.7295 24.1514 26.0667 25 26.0667C25.8487 26.0667 26.6627 25.7295 27.2628 25.1294C27.8629 24.5293 28.2 23.7154 28.2 22.8667C28.2 22.018 27.8629 21.2041 27.2628 20.6039C26.6627 20.0038 25.8487 19.6667 25 19.6667V19.6667Z" fill="white"/>
<path fill-rule="evenodd" clip-rule="evenodd" d="M28.2 13.2667H26.0667V9H23.9333V13.2667H21.8C18.4052 13.2667 15.1495 14.6152 12.749 17.0157C10.3486 19.4162 9 22.6719 9 26.0667C9 29.4614 10.3486 32.7172 12.749 35.1176C15.1495 37.5181 18.4052 38.8667 21.8 38.8667H28.2C28.4773 38.8667 28.7547 38.8581 29.0299 38.8389L37.5419 40.968C37.7204 41.0125 37.9075 41.01 38.0848 40.9608C38.2621 40.9116 38.4237 40.8173 38.5539 40.6872C38.684 40.5571 38.7782 40.3955 38.8274 40.2181C38.8766 40.0408 38.8791 39.8538 38.8347 39.6752L37.6037 34.7493C39.2914 32.9213 40.4098 30.6409 40.822 28.1873C41.2342 25.7337 40.9224 23.2131 39.9247 20.9339C38.927 18.6546 37.2867 16.7156 35.2043 15.3539C33.122 13.9922 30.688 13.2669 28.2 13.2667V13.2667ZM19.6667 22.8667C19.6667 21.4522 20.2286 20.0956 21.2288 19.0954C22.229 18.0952 23.5855 17.5333 25 17.5333C26.4145 17.5333 27.771 18.0952 28.7712 19.0954C29.7714 20.0956 30.3333 21.4522 30.3333 22.8667C30.3333 24.2812 29.7714 25.6377 28.7712 26.6379C27.771 27.6381 26.4145 28.2 25 28.2C23.5855 28.2 22.229 27.6381 21.2288 26.6379C20.2286 25.6377 19.6667 24.2812 19.6667 22.8667ZM25 34.6C22.818 34.6033 20.7005 33.8603 18.9989 32.4944L20.3344 30.8304C21.6123 31.8544 23.2336 32.4667 25 32.4667C26.7664 32.4667 28.3877 31.8544 29.6656 30.8304L31.0011 32.4944C29.2995 33.8603 27.182 34.6033 25 34.6V34.6Z" fill="white"/>
</svg>
