<svg width="50" height="50" viewBox="0 0 50 50" fill="none" xmlns="http://www.w3.org/2000/svg">
<rect width="50" height="50" rx="2" fill="#092F93"/>
<path d="M40.4234 20.9696L34.6884 33.5959C34.3338 34.3513 33.2084 34.1046 33.2084 33.2721V22.9584H30.8959C30.4642 22.9584 30.125 22.6192 30.125 22.1875V12.9375C30.125 12.5059 30.4642 12.1667 30.8959 12.1667H39.7759C40.3155 12.1667 40.7009 12.7217 40.485 13.2304L37.8334 19.875H39.7142C40.2846 19.875 40.6546 20.4609 40.4234 20.9696ZM30.125 26.0417V36.8334H13.1667C11.4709 36.8334 10.0834 35.4459 10.0834 33.75V29.125C10.0834 27.4292 11.4709 26.0417 13.1667 26.0417H30.125ZM16.6355 31.4375C16.6355 30.8054 16.1113 30.2813 15.4792 30.2813C14.8471 30.2813 14.323 30.8054 14.323 31.4375C14.323 32.0696 14.8471 32.5938 15.4792 32.5938C16.1113 32.5938 16.6355 32.0696 16.6355 31.4375ZM27.0417 12.1667V22.9584H13.1667C11.4709 22.9584 10.0834 21.5709 10.0834 19.875V15.25C10.0834 13.5542 11.4709 12.1667 13.1667 12.1667H27.0417ZM16.6355 17.5625C16.6355 16.9304 16.1113 16.4063 15.4792 16.4063C14.8471 16.4063 14.323 16.9304 14.323 17.5625C14.323 18.1946 14.8471 18.7188 15.4792 18.7188C16.1113 18.7188 16.6355 18.1946 16.6355 17.5625Z" fill="white"/>
</svg>
