<svg width="20" height="20" viewBox="0 0 20 20" fill="none" xmlns="http://www.w3.org/2000/svg">
<g clip-path="url(#clip0_617_745)">
<path d="M9.71433 6.57141C9.2142 6.57141 8.73457 6.77008 8.38093 7.12372C8.02729 7.47736 7.82861 7.957 7.82861 8.45713C7.82861 8.95725 8.02729 9.43689 8.38093 9.79053C8.73457 10.1442 9.2142 10.3428 9.71433 10.3428C10.2144 10.3428 10.6941 10.1442 11.0477 9.79053C11.4014 9.43689 11.6 8.95725 11.6 8.45713C11.6 7.957 11.4014 7.47736 11.0477 7.12372C10.6941 6.77008 10.2144 6.57141 9.71433 6.57141V6.57141Z" fill="white"/>
<path fill-rule="evenodd" clip-rule="evenodd" d="M11.6001 2.79999H10.3429V0.285706H9.08577V2.79999H7.82862C5.82813 2.79999 3.90958 3.59468 2.49502 5.00924C1.08046 6.4238 0.285767 8.34236 0.285767 10.3428C0.285767 12.3433 1.08046 14.2619 2.49502 15.6765C3.90958 17.091 5.82813 17.8857 7.82862 17.8857H11.6001C11.7635 17.8857 11.9269 17.8807 12.0891 17.8694L17.1051 19.124C17.2103 19.1502 17.3205 19.1487 17.425 19.1197C17.5295 19.0907 17.6247 19.0352 17.7014 18.9585C17.7781 18.8818 17.8337 18.7866 17.8626 18.6821C17.8916 18.5776 17.8931 18.4674 17.8669 18.3622L17.1415 15.4594C18.1361 14.3822 18.7951 13.0384 19.038 11.5925C19.2809 10.1466 19.0972 8.66127 18.5092 7.31816C17.9213 5.97505 16.9547 4.8324 15.7276 4.02997C14.5005 3.22754 13.0662 2.80012 11.6001 2.79999V2.79999ZM6.57148 8.45714C6.57148 7.6236 6.9026 6.8242 7.492 6.2348C8.0814 5.6454 8.8808 5.31428 9.71434 5.31428C10.5479 5.31428 11.3473 5.6454 11.9367 6.2348C12.5261 6.8242 12.8572 7.6236 12.8572 8.45714C12.8572 9.29067 12.5261 10.0901 11.9367 10.6795C11.3473 11.2689 10.5479 11.6 9.71434 11.6C8.8808 11.6 8.0814 11.2689 7.492 10.6795C6.9026 10.0901 6.57148 9.29067 6.57148 8.45714ZM9.71434 15.3714C8.42853 15.3733 7.18072 14.9355 6.178 14.1306L6.96497 13.15C7.718 13.7535 8.67342 14.1143 9.71434 14.1143C10.7553 14.1143 11.7107 13.7535 12.4637 13.15L13.2507 14.1306C12.248 14.9355 11.0002 15.3733 9.71434 15.3714V15.3714Z" fill="white"/>
</g>
<defs>
<clipPath id="clip0_617_745">
<rect width="18.8571" height="18.8571" fill="white" transform="translate(0.285767 0.285706)"/>
</clipPath>
</defs>
</svg>
