<svg width="24" height="27" viewBox="0 0 24 27" fill="none" xmlns="http://www.w3.org/2000/svg">
<g clip-path="url(#clip0_617_750)">
<path d="M23.3999 4.55191V22.3175C23.3999 23.6555 22.3145 24.7401 20.9754 24.7401H3.19585C1.85683 24.7401 0.771362 23.6555 0.771362 22.3175V4.55191C0.771362 3.21394 1.85683 2.12933 3.19585 2.12933H20.9754C22.3145 2.12933 23.3999 3.21394 23.3999 4.55191ZM16.1265 15.4535C15.3909 15.4535 14.7211 15.7342 14.218 16.194L10.7855 14.136C10.9027 13.6758 10.9027 13.1935 10.7855 12.7333L14.218 10.6754C14.7211 11.1352 15.3909 11.4159 16.1265 11.4159C17.6886 11.4159 18.955 10.1505 18.955 8.58954C18.955 7.02859 17.6886 5.7632 16.1265 5.7632C14.5643 5.7632 13.2979 7.02859 13.2979 8.58954C13.2979 8.83165 13.3285 9.06664 13.3858 9.29093L9.95321 11.3489C9.45018 10.889 8.78036 10.6084 8.04483 10.6084C6.48265 10.6084 5.21626 11.8737 5.21626 13.4347C5.21626 14.9956 6.48265 16.261 8.04483 16.261C8.78036 16.261 9.45018 15.9804 9.95326 15.5206L13.3858 17.5785C13.3273 17.8077 13.2978 18.0434 13.2979 18.2799C13.2979 19.8409 14.5643 21.1062 16.1265 21.1062C17.6887 21.1062 18.9551 19.8409 18.9551 18.2799C18.955 16.7189 17.6886 15.4535 16.1265 15.4535Z" fill="white"/>
</g>
<defs>
<clipPath id="clip0_617_750">
<rect width="22.6286" height="25.8408" fill="white" transform="translate(0.771362 0.514282)"/>
</clipPath>
</defs>
</svg>
