<svg width="21" height="21" viewBox="0 0 21 21" fill="none" xmlns="http://www.w3.org/2000/svg">
<path d="M17.4429 2.77145V0.807164C17.4429 0.702972 17.4015 0.603047 17.3278 0.529372C17.2542 0.455697 17.1542 0.414307 17.05 0.414307H3.69291C3.58871 0.414307 3.48879 0.455697 3.41511 0.529372C3.34144 0.603047 3.30005 0.702972 3.30005 0.807164V2.77145" fill="#3A416F"/>
<path d="M17.8357 3.55713H2.9071C2.17776 3.55713 1.47829 3.84686 0.962561 4.36259C0.446836 4.87831 0.157104 5.57778 0.157104 6.30713V16.5214C0.157104 16.6256 0.198495 16.7255 0.27217 16.7992C0.345845 16.8729 0.445769 16.9143 0.549962 16.9143H3.29996V20.45C3.29996 20.5542 3.34135 20.6541 3.41503 20.7278C3.4887 20.8015 3.58863 20.8428 3.69282 20.8428H17.05C17.1542 20.8428 17.2541 20.8015 17.3278 20.7278C17.4014 20.6541 17.4428 20.5542 17.4428 20.45V16.9143H20.1928C20.297 16.9143 20.3969 16.8729 20.4706 16.7992C20.5443 16.7255 20.5857 16.6256 20.5857 16.5214V6.30713C20.5857 5.57778 20.2959 4.87831 19.7802 4.36259C19.2645 3.84686 18.565 3.55713 17.8357 3.55713V3.55713ZM15.4785 18.6821C15.4785 18.7342 15.4578 18.7842 15.421 18.821C15.3842 18.8579 15.3342 18.8786 15.2821 18.8786H5.46068C5.40858 18.8786 5.35862 18.8579 5.32178 18.821C5.28494 18.7842 5.26425 18.7342 5.26425 18.6821V11.2178C5.26425 11.1657 5.28494 11.1158 5.32178 11.0789C5.35862 11.0421 5.40858 11.0214 5.46068 11.0214H15.2821C15.3342 11.0214 15.3842 11.0421 15.421 11.0789C15.4578 11.1158 15.4785 11.1657 15.4785 11.2178V18.6821ZM17.1482 8.26749C16.9078 8.28681 16.6673 8.23192 16.4591 8.11024C16.2509 7.98856 16.085 7.80593 15.9839 7.58701C15.8827 7.36809 15.8512 7.12342 15.8934 6.886C15.9357 6.64858 16.0499 6.42985 16.2204 6.25933C16.3909 6.0888 16.6096 5.9747 16.847 5.9324C17.0845 5.8901 17.3291 5.92166 17.5481 6.0228C17.767 6.12395 17.9496 6.28981 18.0713 6.49802C18.193 6.70623 18.2479 6.94675 18.2285 7.18713C18.2061 7.46618 18.0851 7.72813 17.8871 7.92608C17.6892 8.12403 17.4272 8.24506 17.1482 8.26749V8.26749Z" fill="#3A416F"/>
</svg>
