<svg width="40" height="36" viewBox="0 0 40 36" fill="none" xmlns="http://www.w3.org/2000/svg">
<path d="M26.518 10H17.1517V8H25.5662C25.2605 6.99363 25.1882 5.9389 25.3541 4.9049C25.52 3.87091 25.9203 2.88099 26.5288 2H9.58083C9.00714 2 8.45695 2.21071 8.05128 2.58579C7.64562 2.96086 7.41772 3.46957 7.41772 4V32C7.41772 32.5304 7.64562 33.0391 8.05128 33.4142C8.45695 33.7893 9.00714 34 9.58083 34H31.2119C31.7856 34 32.3358 33.7893 32.7415 33.4142C33.1471 33.0391 33.375 32.5304 33.375 32V13.5C32.0053 13.5002 30.6578 13.1793 29.4586 12.5672C28.2594 11.9551 27.2477 11.0718 26.518 10V10ZM14.9886 26H12.8255V24H14.9886V26ZM14.9886 22H12.8255V20H14.9886V22ZM14.9886 18H12.8255V16H14.9886V18ZM14.9886 14H12.8255V12H14.9886V14ZM14.9886 10H12.8255V8H14.9886V10ZM27.9673 26H17.1517V24H27.9673V26ZM27.9673 22H17.1517V20H27.9673V22ZM27.9673 18H17.1517V16H27.9673V18ZM27.9673 14H17.1517V12H27.9673V14Z" fill="#3B7DED"/>
<path d="M33.3751 11C36.3617 11 38.7828 8.76142 38.7828 6C38.7828 3.23858 36.3617 1 33.3751 1C30.3884 1 27.9673 3.23858 27.9673 6C27.9673 8.76142 30.3884 11 33.3751 11Z" fill="#3B7DED"/>
</svg>
