<svg width="26" height="26" viewBox="0 0 26 26" fill="none" xmlns="http://www.w3.org/2000/svg">
<path fill-rule="evenodd" clip-rule="evenodd" d="M3.6571 20.6762C3.6571 21.5097 3.98823 22.3091 4.57763 22.8985C5.16703 23.4879 5.96642 23.819 6.79996 23.819H19.3714C20.2049 23.819 21.0043 23.4879 21.5937 22.8985C22.1831 22.3091 22.5142 21.5097 22.5142 20.6762V10.0198C22.5138 9.18668 22.1826 8.38784 21.5934 7.79883L17.5831 3.78645C16.9937 3.19739 16.1944 2.86654 15.3611 2.86664H6.79996C5.96642 2.86664 5.16703 3.19776 4.57763 3.78716C3.98823 4.37656 3.6571 5.17596 3.6571 6.0095V20.6762ZM18.3238 12.2952C18.3238 12.0174 18.2134 11.7509 18.0169 11.5544C17.8205 11.358 17.554 11.2476 17.2762 11.2476C16.9983 11.2476 16.7318 11.358 16.5354 11.5544C16.3389 11.7509 16.2285 12.0174 16.2285 12.2952V18.5809C16.2285 18.8588 16.3389 19.1252 16.5354 19.3217C16.7318 19.5182 16.9983 19.6285 17.2762 19.6285C17.554 19.6285 17.8205 19.5182 18.0169 19.3217C18.2134 19.1252 18.3238 18.8588 18.3238 18.5809V12.2952ZM14.1333 14.3904C14.1333 14.1126 14.0229 13.8461 13.8265 13.6497C13.63 13.4532 13.3635 13.3428 13.0857 13.3428C12.8078 13.3428 12.5414 13.4532 12.3449 13.6497C12.1484 13.8461 12.0381 14.1126 12.0381 14.3904V18.5809C12.0381 18.8588 12.1484 19.1252 12.3449 19.3217C12.5414 19.5182 12.8078 19.6285 13.0857 19.6285C13.3635 19.6285 13.63 19.5182 13.8265 19.3217C14.0229 19.1252 14.1333 18.8588 14.1333 18.5809V14.3904ZM9.94282 16.4804C9.94143 16.2026 9.82972 15.9367 9.63227 15.7412C9.43483 15.5457 9.16781 15.4367 8.88996 15.4381C8.61212 15.4395 8.3462 15.5512 8.15072 15.7486C7.95523 15.9461 7.84619 16.2131 7.84758 16.4909L7.85806 18.5862C7.85945 18.864 7.97115 19.1299 8.1686 19.3254C8.36605 19.5209 8.63307 19.6299 8.91091 19.6285C9.18876 19.6272 9.45467 19.5154 9.65016 19.318C9.84564 19.1206 9.95468 18.8535 9.9533 18.5757L9.94282 16.4804Z" fill="white"/>
</svg>
