<svg width="20" height="20" viewBox="0 0 20 20" fill="none" xmlns="http://www.w3.org/2000/svg">
<path d="M0 1.42857C0 1.04969 0.15051 0.686328 0.418419 0.418419C0.686328 0.15051 1.04969 0 1.42857 0H18.5714C18.9503 0 19.3137 0.15051 19.5816 0.418419C19.8495 0.686328 20 1.04969 20 1.42857V4.28571C20 4.66459 19.8495 5.02796 19.5816 5.29587C19.3137 5.56377 18.9503 5.71428 18.5714 5.71428H1.42857C1.04969 5.71428 0.686328 5.56377 0.418419 5.29587C0.15051 5.02796 0 4.66459 0 4.28571V1.42857Z" fill="#3A416F"/>
<path d="M0 9.99998C0 9.6211 0.15051 9.25774 0.418419 8.98983C0.686328 8.72192 1.04969 8.57141 1.42857 8.57141H10C10.3789 8.57141 10.7422 8.72192 11.0102 8.98983C11.2781 9.25774 11.4286 9.6211 11.4286 9.99998V18.5714C11.4286 18.9503 11.2781 19.3137 11.0102 19.5816C10.7422 19.8495 10.3789 20 10 20H1.42857C1.04969 20 0.686328 19.8495 0.418419 19.5816C0.15051 19.3137 0 18.9503 0 18.5714V9.99998Z" fill="#3A416F"/>
<path d="M15.7143 8.57141C15.3354 8.57141 14.972 8.72192 14.7041 8.98983C14.4362 9.25774 14.2857 9.6211 14.2857 9.99998V18.5714C14.2857 18.9503 14.4362 19.3137 14.7041 19.5816C14.972 19.8495 15.3354 20 15.7143 20H18.5714C18.9503 20 19.3137 19.8495 19.5816 19.5816C19.8495 19.3137 20 18.9503 20 18.5714V9.99998C20 9.6211 19.8495 9.25774 19.5816 8.98983C19.3137 8.72192 18.9503 8.57141 18.5714 8.57141H15.7143Z" fill="#3A416F"/>
</svg>
