<svg width="20" height="20" viewBox="0 0 20 20" fill="none" xmlns="http://www.w3.org/2000/svg">
<g clip-path="url(#clip0_617_727)">
<path d="M10.0001 6.85712C9.49997 6.85712 9.02033 7.05579 8.66669 7.40943C8.31305 7.76307 8.11438 8.24271 8.11438 8.74283C8.11438 9.24296 8.31305 9.72259 8.66669 10.0762C9.02033 10.4299 9.49997 10.6285 10.0001 10.6285C10.5002 10.6285 10.9799 10.4299 11.3335 10.0762C11.6871 9.72259 11.8858 9.24296 11.8858 8.74283C11.8858 8.24271 11.6871 7.76307 11.3335 7.40943C10.9799 7.05579 10.5002 6.85712 10.0001 6.85712V6.85712Z" fill="#3A416F"/>
<path fill-rule="evenodd" clip-rule="evenodd" d="M11.8858 3.0857H10.6287V0.571411H9.37153V3.0857H8.11439C6.1139 3.0857 4.19535 3.88039 2.78078 5.29495C1.36622 6.70951 0.571533 8.62806 0.571533 10.6286C0.571533 12.629 1.36622 14.5476 2.78078 15.9622C4.19535 17.3767 6.1139 18.1714 8.11439 18.1714H11.8858C12.0492 18.1714 12.2127 18.1664 12.3748 18.1551L17.3908 19.4097C17.4961 19.4359 17.6063 19.4344 17.7108 19.4054C17.8153 19.3764 17.9105 19.3209 17.9872 19.2442C18.0639 19.1675 18.1194 19.0723 18.1484 18.9678C18.1774 18.8633 18.1789 18.7531 18.1527 18.6479L17.4273 15.7451C18.4218 14.6679 19.0809 13.3241 19.3238 11.8782C19.5667 10.4323 19.3829 8.94698 18.795 7.60387C18.2071 6.26076 17.2405 5.1181 16.0134 4.31567C14.7863 3.51324 13.352 3.08583 11.8858 3.0857V3.0857ZM6.85725 8.74284C6.85725 7.9093 7.18837 7.10991 7.77777 6.5205C8.36717 5.9311 9.16657 5.59998 10.0001 5.59998C10.8336 5.59998 11.633 5.9311 12.2224 6.5205C12.8118 7.10991 13.143 7.9093 13.143 8.74284C13.143 9.57638 12.8118 10.3758 12.2224 10.9652C11.633 11.5546 10.8336 11.8857 10.0001 11.8857C9.16657 11.8857 8.36717 11.5546 7.77777 10.9652C7.18837 10.3758 6.85725 9.57638 6.85725 8.74284ZM10.0001 15.6571C8.71429 15.659 7.46648 15.2212 6.46376 14.4163L7.25073 13.4358C8.00376 14.0392 8.95919 14.4 10.0001 14.4C11.041 14.4 11.9964 14.0392 12.7495 13.4358L13.5364 14.4163C12.5337 15.2212 11.2859 15.659 10.0001 15.6571V15.6571Z" fill="#3A416F"/>
</g>
<defs>
<clipPath id="clip0_617_727">
<rect width="18.8571" height="18.8571" fill="white" transform="translate(0.571533 0.571411)"/>
</clipPath>
</defs>
</svg>
