<svg width="26" height="26" viewBox="0 0 26 26" fill="none" xmlns="http://www.w3.org/2000/svg">
<path fill-rule="evenodd" clip-rule="evenodd" d="M3.6571 7.05716C3.6571 6.22363 3.98823 5.42423 4.57763 4.83483C5.16703 4.24543 5.96642 3.91431 6.79996 3.91431H19.3714C20.2049 3.91431 21.0043 4.24543 21.5937 4.83483C22.1831 5.42423 22.5142 6.22363 22.5142 7.05716V19.6286C22.5142 20.4621 22.1831 21.2615 21.5937 21.8509C21.0043 22.4403 20.2049 22.7715 19.3714 22.7715H6.79996C5.96642 22.7715 5.16703 22.4403 4.57763 21.8509C3.98823 21.2615 3.6571 20.4621 3.6571 19.6286V7.05716ZM14.1333 9.1524C14.1333 8.87456 14.0229 8.60809 13.8265 8.41162C13.63 8.21516 13.3635 8.10478 13.0857 8.10478C12.8078 8.10478 12.5414 8.21516 12.3449 8.41162C12.1484 8.60809 12.0381 8.87456 12.0381 9.1524V17.5334C12.0381 17.8112 12.1484 18.0777 12.3449 18.2741C12.5414 18.4706 12.8078 18.581 13.0857 18.581C13.3635 18.581 13.63 18.4706 13.8265 18.2741C14.0229 18.0777 14.1333 17.8112 14.1333 17.5334V9.1524ZM9.94282 12.2953C9.94282 12.0174 9.83245 11.7509 9.63598 11.5545C9.43951 11.358 9.17305 11.2476 8.8952 11.2476C8.61735 11.2476 8.35089 11.358 8.15442 11.5545C7.95795 11.7509 7.84758 12.0174 7.84758 12.2953V17.5334C7.84758 17.8112 7.95795 18.0777 8.15442 18.2741C8.35089 18.4706 8.61735 18.581 8.8952 18.581C9.17305 18.581 9.43951 18.4706 9.63598 18.2741C9.83245 18.0777 9.94282 17.8112 9.94282 17.5334V12.2953ZM18.3238 15.4381C18.3238 15.1603 18.2134 14.8938 18.0169 14.6973C17.8205 14.5009 17.554 14.3905 17.2762 14.3905C16.9983 14.3905 16.7318 14.5009 16.5354 14.6973C16.3389 14.8938 16.2285 15.1603 16.2285 15.4381V17.5334C16.2285 17.8112 16.3389 18.0777 16.5354 18.2741C16.7318 18.4706 16.9983 18.581 17.2762 18.581C17.554 18.581 17.8205 18.4706 18.0169 18.2741C18.2134 18.0777 18.3238 17.8112 18.3238 17.5334V15.4381Z" fill="white"/>
</svg>
