<svg width="23" height="27" viewBox="0 0 23 27" fill="none" xmlns="http://www.w3.org/2000/svg">
<g clip-path="url(#clip0_617_728)">
<path d="M22.6857 4.83762V22.6032C22.6857 23.9412 21.6002 25.0258 20.2612 25.0258H2.48162C1.14259 25.0258 0.0571289 23.9412 0.0571289 22.6032V4.83762C0.0571289 3.49965 1.14259 2.41504 2.48162 2.41504H20.2612C21.6002 2.41504 22.6857 3.49965 22.6857 4.83762ZM15.4122 15.7392C14.6767 15.7392 14.0069 16.0199 13.5038 16.4797L10.0712 14.4217C10.1885 13.9615 10.1885 13.4793 10.0712 13.019L13.5038 10.9611C14.0069 11.4209 14.6767 11.7016 15.4122 11.7016C16.9744 11.7016 18.2408 10.4362 18.2408 8.87525C18.2408 7.3143 16.9744 6.04891 15.4122 6.04891C13.8501 6.04891 12.5837 7.3143 12.5837 8.87525C12.5837 9.11735 12.6142 9.35234 12.6715 9.57663L9.23897 11.6346C8.73594 11.1747 8.06613 10.8941 7.3306 10.8941C5.76842 10.8941 4.50203 12.1595 4.50203 13.7204C4.50203 15.2813 5.76842 16.5467 7.3306 16.5467C8.06613 16.5467 8.73594 16.2661 9.23903 15.8063L12.6716 17.8642C12.6131 18.0934 12.5836 18.3291 12.5837 18.5656C12.5837 20.1266 13.8501 21.3919 15.4123 21.3919C16.9745 21.3919 18.2409 20.1266 18.2409 18.5656C18.2408 17.0046 16.9744 15.7392 15.4122 15.7392Z" fill="#3A416F"/>
</g>
<defs>
<clipPath id="clip0_617_728">
<rect width="22.6286" height="25.8408" fill="white" transform="translate(0.0571289 0.799988)"/>
</clipPath>
</defs>
</svg>
