<svg width="26" height="26" viewBox="0 0 26 26" fill="none" xmlns="http://www.w3.org/2000/svg">
<path fill-rule="evenodd" clip-rule="evenodd" d="M4.28571 4.54285C3.95229 4.54285 3.63253 4.6753 3.39677 4.91106C3.16101 5.14682 3.02856 5.46657 3.02856 5.79999C3.02856 6.1334 3.16101 6.45316 3.39677 6.68892C3.63253 6.92468 3.95229 7.05713 4.28571 7.05713V17.1143C4.28571 17.7811 4.5506 18.4206 5.02212 18.8921C5.49364 19.3637 6.13316 19.6286 6.79999 19.6286H10.051L8.42548 21.254C8.30541 21.37 8.20964 21.5087 8.14375 21.6621C8.07787 21.8155 8.04319 21.9804 8.04174 22.1474C8.04028 22.3143 8.07209 22.4798 8.1353 22.6343C8.19851 22.7888 8.29186 22.9292 8.4099 23.0472C8.52793 23.1653 8.6683 23.2586 8.82279 23.3218C8.97729 23.385 9.14283 23.4168 9.30975 23.4154C9.47668 23.4139 9.64164 23.3793 9.79502 23.3134C9.94839 23.2475 10.0871 23.1517 10.2031 23.0316L13.0857 20.149L15.9683 23.0316C16.2054 23.2606 16.523 23.3874 16.8526 23.3845C17.1822 23.3816 17.4975 23.2494 17.7306 23.0163C17.9637 22.7832 18.0959 22.4679 18.0988 22.1383C18.1016 21.8087 17.9749 21.4911 17.7459 21.254L16.1204 19.6286H19.3714C20.0383 19.6286 20.6778 19.3637 21.1493 18.8921C21.6208 18.4206 21.8857 17.7811 21.8857 17.1143V7.05713C22.2191 7.05713 22.5389 6.92468 22.7746 6.68892C23.0104 6.45316 23.1428 6.1334 23.1428 5.79999C23.1428 5.46657 23.0104 5.14682 22.7746 4.91106C22.5389 4.6753 22.2191 4.54285 21.8857 4.54285H4.28571ZM18.1143 9.57142C18.1143 9.238 17.9818 8.91824 17.7461 8.68248C17.5103 8.44672 17.1906 8.31428 16.8571 8.31428C16.5237 8.31428 16.204 8.44672 15.9682 8.68248C15.7324 8.91824 15.6 9.238 15.6 9.57142V14.6C15.6 14.9334 15.7324 15.2532 15.9682 15.4889C16.204 15.7247 16.5237 15.8571 16.8571 15.8571C17.1906 15.8571 17.5103 15.7247 17.7461 15.4889C17.9818 15.2532 18.1143 14.9334 18.1143 14.6V9.57142ZM14.3428 10.8286C14.3428 10.4951 14.2104 10.1754 13.9746 9.93963C13.7389 9.70387 13.4191 9.57142 13.0857 9.57142C12.7523 9.57142 12.4325 9.70387 12.1968 9.93963C11.961 10.1754 11.8286 10.4951 11.8286 10.8286V14.6C11.8286 14.9334 11.961 15.2532 12.1968 15.4889C12.4325 15.7247 12.7523 15.8571 13.0857 15.8571C13.4191 15.8571 13.7389 15.7247 13.9746 15.4889C14.2104 15.2532 14.3428 14.9334 14.3428 14.6V10.8286ZM10.5714 12.0857C10.5714 11.7523 10.439 11.4325 10.2032 11.1968C9.96745 10.961 9.64769 10.8286 9.31428 10.8286C8.98086 10.8286 8.6611 10.961 8.42534 11.1968C8.18958 11.4325 8.05714 11.7523 8.05714 12.0857V14.6C8.05714 14.9334 8.18958 15.2532 8.42534 15.4889C8.6611 15.7247 8.98086 15.8571 9.31428 15.8571C9.64769 15.8571 9.96745 15.7247 10.2032 15.4889C10.439 15.2532 10.5714 14.9334 10.5714 14.6V12.0857Z" fill="white"/>
</svg>
