<svg width="26" height="26" viewBox="0 0 26 26" fill="none" xmlns="http://www.w3.org/2000/svg">
<path fill-rule="evenodd" clip-rule="evenodd" d="M3.94287 6.34287C3.94287 5.50933 4.27399 4.70993 4.86339 4.12053C5.45279 3.53113 6.25219 3.20001 7.08573 3.20001H19.6572C20.4907 3.20001 21.2901 3.53113 21.8795 4.12053C22.4689 4.70993 22.8 5.50933 22.8 6.34287V18.9143C22.8 19.7478 22.4689 20.5472 21.8795 21.1366C21.2901 21.726 20.4907 22.0572 19.6572 22.0572H7.08573C6.25219 22.0572 5.45279 21.726 4.86339 21.1366C4.27399 20.5472 3.94287 19.7478 3.94287 18.9143V6.34287ZM14.4191 8.43811C14.4191 8.16026 14.3087 7.8938 14.1122 7.69733C13.9158 7.50086 13.6493 7.39049 13.3714 7.39049C13.0936 7.39049 12.8271 7.50086 12.6307 7.69733C12.4342 7.8938 12.3238 8.16026 12.3238 8.43811V16.8191C12.3238 17.0969 12.4342 17.3634 12.6307 17.5598C12.8271 17.7563 13.0936 17.8667 13.3714 17.8667C13.6493 17.8667 13.9158 17.7563 14.1122 17.5598C14.3087 17.3634 14.4191 17.0969 14.4191 16.8191V8.43811ZM10.2286 11.581C10.2286 11.3031 10.1182 11.0367 9.92174 10.8402C9.72528 10.6437 9.45881 10.5333 9.18097 10.5333C8.90312 10.5333 8.63665 10.6437 8.44019 10.8402C8.24372 11.0367 8.13335 11.3031 8.13335 11.581V16.8191C8.13335 17.0969 8.24372 17.3634 8.44019 17.5598C8.63665 17.7563 8.90312 17.8667 9.18097 17.8667C9.45881 17.8667 9.72528 17.7563 9.92174 17.5598C10.1182 17.3634 10.2286 17.0969 10.2286 16.8191V11.581ZM18.6095 14.7238C18.6095 14.446 18.4992 14.1795 18.3027 13.983C18.1062 13.7866 17.8398 13.6762 17.5619 13.6762C17.2841 13.6762 17.0176 13.7866 16.8211 13.983C16.6247 14.1795 16.5143 14.446 16.5143 14.7238V16.8191C16.5143 17.0969 16.6247 17.3634 16.8211 17.5598C17.0176 17.7563 17.2841 17.8667 17.5619 17.8667C17.8398 17.8667 18.1062 17.7563 18.3027 17.5598C18.4992 17.3634 18.6095 17.0969 18.6095 16.8191V14.7238Z" fill="#3A416F"/>
</svg>
