<svg width="21" height="22" viewBox="0 0 21 22" fill="none" xmlns="http://www.w3.org/2000/svg">
<path d="M20.3902 4.82927C20.3902 5.09212 20.2937 5.34583 20.119 5.54225C19.9444 5.73868 19.7037 5.86417 19.4426 5.89493L19.3171 5.90244H18.4102L17.0892 19.3385C17.0172 20.0676 16.6767 20.7438 16.1338 21.2358C15.5909 21.7277 14.8845 22.0001 14.1519 22H6.23834C5.50574 22.0001 4.7993 21.7277 4.25641 21.2358C3.71352 20.7438 3.373 20.0676 3.30107 19.3385L1.98 5.90244H1.07317C0.788548 5.90244 0.515583 5.78937 0.314324 5.58811C0.113066 5.38686 0 5.11389 0 4.82927C0 4.54465 0.113066 4.27168 0.314324 4.07042C0.515583 3.86916 0.788548 3.7561 1.07317 3.7561H6.43902C6.43902 3.26284 6.53618 2.77441 6.72494 2.3187C6.9137 1.86299 7.19037 1.44892 7.53916 1.10014C7.88795 0.75135 8.30201 0.474678 8.75773 0.285916C9.21344 0.0971544 9.70186 0 10.1951 0C10.6884 0 11.1768 0.0971544 11.6325 0.285916C12.0882 0.474678 12.5023 0.75135 12.8511 1.10014C13.1999 1.44892 13.4765 1.86299 13.6653 2.3187C13.8541 2.77441 13.9512 3.26284 13.9512 3.7561H19.3171C19.6017 3.7561 19.8747 3.86916 20.0759 4.07042C20.2772 4.27168 20.3902 4.54465 20.3902 4.82927ZM12.6098 8.31707C12.4153 8.31708 12.2273 8.38752 12.0808 8.51536C11.9342 8.6432 11.8388 8.8198 11.8124 9.01249L11.8049 9.12195V16.6341L11.8124 16.7436C11.8389 16.9363 11.9343 17.1128 12.0808 17.2406C12.2274 17.3684 12.4153 17.4388 12.6098 17.4388C12.8042 17.4388 12.9921 17.3684 13.1387 17.2406C13.2853 17.1128 13.3806 16.9363 13.4071 16.7436L13.4146 16.6341V9.12195L13.4071 9.01249C13.3807 8.8198 13.2853 8.6432 13.1388 8.51536C12.9922 8.38752 12.8043 8.31708 12.6098 8.31707V8.31707ZM7.78049 8.31707C7.58599 8.31708 7.39807 8.38752 7.25149 8.51536C7.10491 8.6432 7.00957 8.8198 6.98312 9.01249L6.97561 9.12195V16.6341L6.98312 16.7436C7.00963 16.9363 7.10498 17.1128 7.25156 17.2406C7.39814 17.3684 7.58603 17.4388 7.78049 17.4388C7.97495 17.4388 8.16284 17.3684 8.30941 17.2406C8.45599 17.1128 8.55135 16.9363 8.57785 16.7436L8.58537 16.6341V9.12195L8.57785 9.01249C8.5514 8.8198 8.45607 8.6432 8.30949 8.51536C8.1629 8.38752 7.97499 8.31708 7.78049 8.31707V8.31707ZM10.1951 2.14634C9.76819 2.14634 9.35874 2.31594 9.05685 2.61783C8.75496 2.91972 8.58537 3.32916 8.58537 3.7561H11.8049C11.8049 3.32916 11.6353 2.91972 11.3334 2.61783C11.0315 2.31594 10.6221 2.14634 10.1951 2.14634Z" fill="#3A416F"/>
</svg>
