<svg width="26" height="26" viewBox="0 0 26 26" fill="none" xmlns="http://www.w3.org/2000/svg">
<path fill-rule="evenodd" clip-rule="evenodd" d="M3.94287 19.9619C3.94287 20.7954 4.27399 21.5948 4.86339 22.1842C5.45279 22.7736 6.25219 23.1047 7.08573 23.1047H19.6572C20.4907 23.1047 21.2901 22.7736 21.8795 22.1842C22.4689 21.5948 22.8 20.7954 22.8 19.9619V9.30549C22.7996 8.47238 22.4683 7.67354 21.8792 7.08453L17.8689 3.07215C17.2794 2.4831 16.4802 2.15224 15.6469 2.15234H7.08573C6.25219 2.15234 5.45279 2.48347 4.86339 3.07287C4.27399 3.66227 3.94287 4.46166 3.94287 5.2952V19.9619ZM18.6095 11.5809C18.6095 11.3031 18.4992 11.0366 18.3027 10.8401C18.1062 10.6437 17.8398 10.5333 17.5619 10.5333C17.2841 10.5333 17.0176 10.6437 16.8211 10.8401C16.6247 11.0366 16.5143 11.3031 16.5143 11.5809V17.8666C16.5143 18.1445 16.6247 18.4109 16.8211 18.6074C17.0176 18.8039 17.2841 18.9142 17.5619 18.9142C17.8398 18.9142 18.1062 18.8039 18.3027 18.6074C18.4992 18.4109 18.6095 18.1445 18.6095 17.8666V11.5809ZM14.4191 13.6762C14.4191 13.3983 14.3087 13.1318 14.1122 12.9354C13.9158 12.7389 13.6493 12.6285 13.3714 12.6285C13.0936 12.6285 12.8271 12.7389 12.6307 12.9354C12.4342 13.1318 12.3238 13.3983 12.3238 13.6762V17.8666C12.3238 18.1445 12.4342 18.4109 12.6307 18.6074C12.8271 18.8039 13.0936 18.9142 13.3714 18.9142C13.6493 18.9142 13.9158 18.8039 14.1122 18.6074C14.3087 18.4109 14.4191 18.1445 14.4191 17.8666V13.6762ZM10.2286 15.7662C10.2272 15.4883 10.1155 15.2224 9.91804 15.0269C9.72059 14.8314 9.45357 14.7224 9.17573 14.7238C8.89788 14.7252 8.63197 14.8369 8.43648 15.0343C8.241 15.2318 8.13196 15.4988 8.13335 15.7766L8.14382 17.8719C8.14521 18.1497 8.25692 18.4156 8.45437 18.6111C8.65182 18.8066 8.91884 18.9156 9.19668 18.9142C9.47453 18.9129 9.74044 18.8012 9.93593 18.6037C10.1314 18.4063 10.2405 18.1392 10.2391 17.8614L10.2286 15.7662Z" fill="#3A416F"/>
</svg>
