<svg width="37" height="37" viewBox="0 0 37 37" fill="none" xmlns="http://www.w3.org/2000/svg">
<path d="M33.4234 14.9696L27.6884 27.5959C27.3338 28.3513 26.2084 28.1046 26.2084 27.2721V16.9584H23.8959C23.4642 16.9584 23.125 16.6192 23.125 16.1875V6.93752C23.125 6.50585 23.4642 6.16669 23.8959 6.16669H32.7759C33.3155 6.16669 33.7009 6.72169 33.485 7.23044L30.8334 13.875H32.7142C33.2846 13.875 33.6546 14.4609 33.4234 14.9696ZM23.125 20.0417V30.8334H6.16671C4.47087 30.8334 3.08337 29.4459 3.08337 27.75V23.125C3.08337 21.4292 4.47087 20.0417 6.16671 20.0417H23.125ZM9.63546 25.4375C9.63546 24.8054 9.11129 24.2813 8.47921 24.2813C7.84712 24.2813 7.32296 24.8054 7.32296 25.4375C7.32296 26.0696 7.84712 26.5938 8.47921 26.5938C9.11129 26.5938 9.63546 26.0696 9.63546 25.4375ZM20.0417 6.16669V16.9584H6.16671C4.47087 16.9584 3.08337 15.5709 3.08337 13.875V9.25002C3.08337 7.55419 4.47087 6.16669 6.16671 6.16669H20.0417ZM9.63546 11.5625C9.63546 10.9304 9.11129 10.4063 8.47921 10.4063C7.84712 10.4063 7.32296 10.9304 7.32296 11.5625C7.32296 12.1946 7.84712 12.7188 8.47921 12.7188C9.11129 12.7188 9.63546 12.1946 9.63546 11.5625Z" fill="white"/>
</svg>
