<svg width="30" height="21" viewBox="0 0 30 21" fill="none" xmlns="http://www.w3.org/2000/svg">
<path d="M25.395 9C24.66 3.915 20.295 0 15 0C9.705 0 5.34 3.915 4.605 9H0V12H4.605C5.34 17.085 9.705 21 15 21C20.295 21 24.66 17.085 25.395 12H30V9H25.395ZM19.5 8.25V15.75H10.5V8.25H12V6.75C12.0002 6.31298 12.0959 5.88127 12.2803 5.48509C12.4648 5.0889 12.7336 4.7378 13.0679 4.45634C13.4022 4.17489 13.794 3.96987 14.2158 3.85564C14.6376 3.7414 15.0793 3.72071 15.51 3.795C16.98 4.035 18 5.415 18 6.915V8.25H19.5ZM16.125 12C16.125 12.615 15.615 13.125 15 13.125C14.385 13.125 13.875 12.615 13.875 12C13.875 11.385 14.385 10.875 15 10.875C15.615 10.875 16.125 11.385 16.125 12ZM16.5 6.75V8.25H13.5V6.75C13.5 5.925 14.175 5.25 15 5.25C15.825 5.25 16.5 5.925 16.5 6.75Z" fill="#FFC22B"/>
</svg>
