<svg width="21" height="21" viewBox="0 0 21 21" fill="none" xmlns="http://www.w3.org/2000/svg">
<path d="M10.4167 0.115356C4.66667 0.115356 0 4.78202 0 10.532C0 16.282 4.66667 20.9487 10.4167 20.9487C16.1667 20.9487 20.8333 16.282 20.8333 10.532C20.8333 4.78202 16.1667 0.115356 10.4167 0.115356ZM9.375 18.7924C5.26042 18.282 2.08333 14.782 2.08333 10.532C2.08333 9.88619 2.16667 9.27161 2.30208 8.66744L7.29167 13.657V14.6987C7.29167 15.8445 8.22917 16.782 9.375 16.782V18.7924ZM16.5625 16.1466C16.2917 15.3029 15.5208 14.6987 14.5833 14.6987H13.5417V11.5737C13.5417 11.0008 13.0729 10.532 12.5 10.532H6.25V8.44869H8.33333C8.90625 8.44869 9.375 7.97994 9.375 7.40702V5.32369H11.4583C12.6042 5.32369 13.5417 4.38619 13.5417 3.24036V2.81327C16.5938 4.05286 18.75 7.04244 18.75 10.532C18.75 12.6987 17.9167 14.6674 16.5625 16.1466Z" fill="#FFC22B"/>
</svg>
