<svg width="20" height="18" viewBox="0 0 20 18" fill="none" xmlns="http://www.w3.org/2000/svg">
<path fill-rule="evenodd" clip-rule="evenodd" d="M11.8212 1.3173C11.3815 -0.439102 8.8055 -0.439102 8.36578 1.3173C8.08172 2.45192 6.74117 2.99037 5.71294 2.38285C4.12123 1.44238 2.29971 3.2087 3.26957 4.75218C3.89608 5.74925 3.3408 7.04917 2.17073 7.32463C0.359432 7.75102 0.359432 10.249 2.17073 10.6753C3.3408 10.9509 3.89608 12.2508 3.26957 13.2478C2.29971 14.7913 4.12123 16.5576 5.71295 15.6171C6.74117 15.0096 8.08172 15.5481 8.36578 16.6827C8.8055 18.4391 11.3815 18.4391 11.8212 16.6827C12.1053 15.5481 13.4459 15.0096 14.474 15.6171C16.0658 16.5576 17.8873 14.7913 16.9174 13.2478C16.2909 12.2508 16.8462 10.9509 18.0163 10.6753C19.8276 10.249 19.8276 7.75102 18.0163 7.32463C16.8462 7.04917 16.2909 5.74925 16.9174 4.75218C17.8873 3.2087 16.0658 1.44238 14.474 2.38285C13.4459 2.99037 12.1053 2.45192 11.8212 1.3173ZM10.0935 12.375C12.0158 12.375 13.574 10.864 13.574 9C13.574 7.13604 12.0158 5.625 10.0935 5.625C8.1713 5.625 6.61304 7.13604 6.61304 9C6.61304 10.864 8.1713 12.375 10.0935 12.375Z" fill="#3B7DED"/>
</svg>
