<svg width="23" height="23" viewBox="0 0 23 23" fill="none" xmlns="http://www.w3.org/2000/svg">
<path d="M9.73077 0C7.78638 0 6.19231 1.59496 6.19231 3.53846V4.42308H7.96154V3.53846C7.96154 2.55212 8.74354 1.76923 9.73077 1.76923H13.2692C14.2565 1.76923 15.0385 2.55212 15.0385 3.53846V4.42308H16.8077V3.53846C16.8077 1.59496 15.2136 0 13.2692 0H9.73077ZM4.3125 5.30769C3.74614 5.30758 3.18531 5.41904 2.66204 5.63573C2.13877 5.85241 1.66332 6.17006 1.26284 6.57054C0.862367 6.97101 0.544715 7.44646 0.328033 7.96973C0.111351 8.493 -0.000116121 9.05383 9.07754e-08 9.62019V17.8029C-0.000116121 18.3692 0.111351 18.9301 0.328033 19.4533C0.544715 19.9766 0.862367 20.4521 1.26284 20.8525C1.66332 21.253 2.13877 21.5707 2.66204 21.7874C3.18531 22.004 3.74614 22.1155 4.3125 22.1154H18.6875C19.2539 22.1155 19.8147 22.004 20.338 21.7874C20.8612 21.5707 21.3367 21.253 21.7372 20.8525C22.1376 20.4521 22.4553 19.9766 22.672 19.4533C22.8886 18.9301 23.0001 18.3692 23 17.8029V9.62019C23.0001 9.05383 22.8886 8.493 22.672 7.96973C22.4553 7.44646 22.1376 6.97101 21.7372 6.57054C21.3367 6.17006 20.8612 5.85241 20.338 5.63573C19.8147 5.41904 19.2539 5.30758 18.6875 5.30769H4.3125ZM11.5 11.4168C12.527 11.4168 13.3524 12.2422 13.3524 13.2692C13.3531 13.5127 13.3056 13.7539 13.2128 13.9789C13.12 14.204 12.9835 14.4085 12.8114 14.5806C12.6392 14.7528 12.4348 14.8892 12.2097 14.982C11.9846 15.0749 11.7435 15.1223 11.5 15.1216C11.2565 15.1223 11.0154 15.0749 10.7903 14.982C10.5652 14.8892 10.3608 14.7528 10.1886 14.5806C10.0165 14.4085 9.88004 14.204 9.78719 13.9789C9.69435 13.7539 9.64691 13.5127 9.64762 13.2692C9.64762 12.2422 10.473 11.4168 11.5 11.4168Z" fill="#FFC22B"/>
</svg>
