<svg width="32" height="32" viewBox="0 0 32 32" fill="none" xmlns="http://www.w3.org/2000/svg">
<path d="M16 10.6667C15.1514 10.6667 14.3374 11.0038 13.7373 11.6039C13.1372 12.2041 12.8 13.018 12.8 13.8667C12.8 14.7154 13.1372 15.5293 13.7373 16.1294C14.3374 16.7295 15.1514 17.0667 16 17.0667C16.8487 17.0667 17.6627 16.7295 18.2628 16.1294C18.8629 15.5293 19.2 14.7154 19.2 13.8667C19.2 13.018 18.8629 12.2041 18.2628 11.6039C17.6627 11.0038 16.8487 10.6667 16 10.6667V10.6667Z" fill="white"/>
<path fill-rule="evenodd" clip-rule="evenodd" d="M19.2 4.26667H17.0667V0H14.9333V4.26667H12.8C9.40523 4.26667 6.1495 5.61523 3.74903 8.0157C1.34857 10.4162 0 13.6719 0 17.0667C0 20.4614 1.34857 23.7172 3.74903 26.1176C6.1495 28.5181 9.40523 29.8667 12.8 29.8667H19.2C19.4773 29.8667 19.7547 29.8581 20.0299 29.8389L28.5419 31.968C28.7204 32.0125 28.9075 32.01 29.0848 31.9608C29.2621 31.9116 29.4237 31.8173 29.5539 31.6872C29.684 31.5571 29.7782 31.3955 29.8274 31.2181C29.8766 31.0408 29.8791 30.8538 29.8347 30.6752L28.6037 25.7493C30.2914 23.9213 31.4098 21.6409 31.822 19.1873C32.2342 16.7337 31.9224 14.2131 30.9247 11.9339C29.927 9.65465 28.2867 7.7156 26.2043 6.3539C24.122 4.9922 21.688 4.26688 19.2 4.26667V4.26667ZM10.6667 13.8667C10.6667 12.4522 11.2286 11.0956 12.2288 10.0954C13.229 9.09524 14.5855 8.53333 16 8.53333C17.4145 8.53333 18.771 9.09524 19.7712 10.0954C20.7714 11.0956 21.3333 12.4522 21.3333 13.8667C21.3333 15.2812 20.7714 16.6377 19.7712 17.6379C18.771 18.6381 17.4145 19.2 16 19.2C14.5855 19.2 13.229 18.6381 12.2288 17.6379C11.2286 16.6377 10.6667 15.2812 10.6667 13.8667ZM16 25.6C13.818 25.6033 11.7005 24.8603 9.99893 23.4944L11.3344 21.8304C12.6123 22.8544 14.2336 23.4667 16 23.4667C17.7664 23.4667 19.3877 22.8544 20.6656 21.8304L22.0011 23.4944C20.2995 24.8603 18.182 25.6033 16 25.6V25.6Z" fill="white"/>
</svg>
