<svg width="33" height="30" viewBox="0 0 33 30" fill="none" xmlns="http://www.w3.org/2000/svg">
<path d="M12.6181 23.3333L3.60518 15L6.14684 12.6333L12.6181 18.6167L26.2998 5.96667L28.8415 8.33333L12.6181 23.3333ZM28.8415 0H3.60518C1.60431 0 0 1.48333 0 3.33333V26.6667C0 27.5507 0.37983 28.3986 1.05593 29.0237C1.73204 29.6488 2.64903 30 3.60518 30H28.8415C29.7976 30 30.7146 29.6488 31.3907 29.0237C32.0668 28.3986 32.4466 27.5507 32.4466 26.6667V3.33333C32.4466 2.44928 32.0668 1.60143 31.3907 0.976311C30.7146 0.351189 29.7976 0 28.8415 0Z" fill="#3B7DED"/>
</svg>
