<svg width="37" height="34" viewBox="0 0 37 34" fill="none" xmlns="http://www.w3.org/2000/svg">
<path d="M27.0389 6.66667H36.0518V10H32.4467V31.6667C32.4467 32.1087 32.2567 32.5326 31.9187 32.8452C31.5806 33.1577 31.1221 33.3333 30.6441 33.3333H5.40778C4.9297 33.3333 4.4712 33.1577 4.13315 32.8452C3.7951 32.5326 3.60518 32.1087 3.60518 31.6667V10H0V6.66667H9.01296V1.66667C9.01296 1.22464 9.20287 0.800716 9.54093 0.488155C9.87898 0.175595 10.3375 0 10.8156 0H25.2363C25.7144 0 26.1729 0.175595 26.5109 0.488155C26.849 0.800716 27.0389 1.22464 27.0389 1.66667V6.66667ZM12.6181 15V25H16.2233V15H12.6181ZM19.8285 15V25H23.4337V15H19.8285ZM12.6181 3.33333V6.66667H23.4337V3.33333H12.6181Z" fill="#3B7DED"/>
</svg>
