<svg width="37" height="32" viewBox="0 0 37 32" fill="none" xmlns="http://www.w3.org/2000/svg">
<path d="M31.1155 8.72727V29.0909C31.1147 29.8622 30.8164 30.6016 30.2861 31.147C29.7558 31.6924 29.0368 31.9991 28.2868 32H2.82868C2.07873 31.9991 1.35973 31.6924 0.829432 31.147C0.299134 30.6016 0.000842278 29.8622 0 29.0909V8.72727C0.000842278 7.956 0.299134 7.21656 0.829432 6.67119C1.35973 6.12582 2.07873 5.81905 2.82868 5.81818H28.2868C29.0368 5.81905 29.7558 6.12582 30.2861 6.67119C30.8164 7.21656 31.1147 7.956 31.1155 8.72727ZM33.9442 0H7.07171C6.6966 0 6.33686 0.153247 6.07162 0.426027C5.80638 0.698807 5.65736 1.06878 5.65736 1.45455C5.65736 1.84031 5.80638 2.21028 6.07162 2.48306C6.33686 2.75584 6.6966 2.90909 7.07171 2.90909H33.9442V24.7273C33.9442 25.113 34.0932 25.483 34.3584 25.7558C34.6237 26.0286 34.9834 26.1818 35.3585 26.1818C35.7336 26.1818 36.0934 26.0286 36.3586 25.7558C36.6239 25.483 36.7729 25.113 36.7729 24.7273V2.90909C36.772 2.13782 36.4737 1.39838 35.9434 0.85301C35.4131 0.307637 34.6941 0.000866221 33.9442 0V0Z" fill="#67748E"/>
</svg>
