<svg width="26" height="26" viewBox="0 0 26 26" fill="none" xmlns="http://www.w3.org/2000/svg">
<path d="M17.564 12.3652L19.2128 14.0156L17.1582 16.0723C17.006 16.2246 17.006 16.377 17.1582 16.5293L17.5894 16.9609C17.7416 17.1133 17.8938 17.1133 18.046 16.9609L20.1006 14.9043L23.2714 18.0781L21.2167 20.1348C21.0645 20.2871 21.0645 20.431 21.2167 20.5664L21.6479 21.0234C21.8001 21.1758 21.9523 21.1758 22.1045 21.0234L24.1592 18.9668L25.7572 20.5664C25.9094 20.7188 25.9855 20.9049 25.9855 21.125C25.9855 21.3451 25.9094 21.5397 25.7572 21.709L21.6987 25.7715C21.5296 25.9238 21.3351 26 21.1153 26C20.8954 26 20.7094 25.9238 20.5572 25.7715L12.364 17.5703L7.59526 22.3438C7.32469 22.6146 6.99493 22.75 6.60599 22.75C6.21704 22.75 5.88729 22.6146 5.61672 22.3438L3.68891 20.3887C3.41834 20.1178 3.28306 19.792 3.28306 19.4111C3.28306 19.0303 3.41834 18.7044 3.68891 18.4336L8.45769 13.6602L0.239157 5.43359C0.0869618 5.28125 0.0108643 5.09505 0.0108643 4.875C0.0108643 4.65495 0.0869618 4.46875 0.239157 4.31641L4.29769 0.228516C4.4668 0.0761719 4.66127 0 4.88111 0C5.10095 0 5.28696 0.0761719 5.43916 0.228516L7.03721 1.82812L4.98257 3.88477C4.83038 4.03711 4.83038 4.18945 4.98257 4.3418L5.41379 4.77344C5.56599 4.92578 5.71818 4.92578 5.87038 4.77344L7.92501 2.7168L11.0957 5.89062L9.04111 7.94727C8.88891 8.09961 8.88891 8.25195 9.04111 8.4043L9.47233 8.83594C9.62452 8.98828 9.77672 8.98828 9.92891 8.83594L11.9835 6.7793L13.6323 8.45508L21.6733 0.40625C21.9439 0.135417 22.2694 0 22.6499 0C23.0304 0 23.3559 0.135417 23.6265 0.40625L25.5796 2.36133C25.8502 2.63216 25.9855 2.95801 25.9855 3.33887C25.9855 3.71973 25.8502 4.04557 25.5796 4.31641L17.564 12.3652ZM1.68501 20.5156C1.71883 20.651 1.77802 20.7611 1.86257 20.8457L5.16013 24.1465C5.24469 24.2311 5.3546 24.2904 5.48989 24.3242C5.40534 24.4935 5.33769 24.5951 5.28696 24.6289L0.822572 26C0.416718 26 0.17997 25.9661 0.112328 25.8984C0.0446854 25.8307 0.0108643 25.5938 0.0108643 25.1875L1.38062 20.7188C1.41444 20.6849 1.51591 20.6172 1.68501 20.5156Z" fill="white"/>
</svg>
